<?xml version="1.0" encoding="UTF-8"?>
<svg version="1.1" xmlns="http://www.w3.org/2000/svg" width="500" height="500">
<path d="M0 0 C1.37109375 1.62890625 1.37109375 1.62890625 1.37109375 3.62890625 C2.03109375 3.62890625 2.69109375 3.62890625 3.37109375 3.62890625 C2.9088139 7.95379106 0.12033297 10.39514392 -2.81640625 13.31640625 C-3.28626953 13.81462891 -3.75613281 14.31285156 -4.24023438 14.82617188 C-7.54085781 18.14480689 -9.94476376 19.46161545 -14.62890625 19.62890625 C-18.94786204 18.24358081 -22.18225362 16.28762931 -25.87890625 13.69140625 C-35.93406032 6.80525304 -46.69404513 5.21735931 -58.62890625 5.62890625 C-59.3146875 5.6340625 -60.00046875 5.63921875 -60.70703125 5.64453125 C-70.72488286 6.16397541 -80.61574674 11.11774928 -88.17578125 17.52734375 C-89.62890625 18.62890625 -89.62890625 18.62890625 -91.62890625 18.62890625 C-91.62890625 19.28890625 -91.62890625 19.94890625 -91.62890625 20.62890625 C-92.28890625 20.62890625 -92.94890625 20.62890625 -93.62890625 20.62890625 C-93.62890625 21.28890625 -93.62890625 21.94890625 -93.62890625 22.62890625 C-94.28890625 22.62890625 -94.94890625 22.62890625 -95.62890625 22.62890625 C-95.89960938 23.36109375 -96.1703125 24.09328125 -96.44921875 24.84765625 C-97.58393992 27.52289292 -98.90545906 29.71053019 -100.50390625 32.12890625 C-108.03455843 44.6984507 -109.69593297 58.79230464 -106.96875 73.08984375 C-102.00867466 89.45165072 -92.1526822 100.2040173 -77.62890625 108.62890625 C-64.76236442 115.12753696 -49.67711954 114.83104394 -36.0546875 110.8828125 C-29.71678753 108.58647193 -24.26369006 104.98834163 -18.70703125 101.23828125 C-15.15088225 99.37897492 -13.56625373 98.81410812 -9.62890625 99.62890625 C-7.02912462 101.4525103 -4.92281166 103.6326506 -2.75390625 105.94140625 C-2.1609375 106.53630859 -1.56796875 107.13121094 -0.95703125 107.74414062 C3.37109375 112.20689624 3.37109375 112.20689624 3.37109375 115.62890625 C2.71109375 115.62890625 2.05109375 115.62890625 1.37109375 115.62890625 C1.02304687 116.50095703 1.02304687 116.50095703 0.66796875 117.390625 C-5.0200549 127.20760557 -22.50765379 134.2775199 -33.00390625 137.07421875 C-55.86308604 141.90458115 -77.26231405 139.26350345 -97.62890625 127.62890625 C-104.72055566 122.99205856 -111.05670786 116.99214742 -116.62890625 110.62890625 C-116.62890625 109.96890625 -116.62890625 109.30890625 -116.62890625 108.62890625 C-117.28890625 108.62890625 -117.94890625 108.62890625 -118.62890625 108.62890625 C-120.18277743 106.44921269 -121.57775082 104.29998522 -122.94140625 102.00390625 C-123.34367432 101.32674561 -123.74594238 100.64958496 -124.16040039 99.9519043 C-135.07165319 81.02278394 -137.61777574 58.76760343 -132.22851562 37.65966797 C-129.49449319 28.4000594 -125.12521675 17.86937616 -118.62890625 10.62890625 C-117.96890625 10.62890625 -117.30890625 10.62890625 -116.62890625 10.62890625 C-115.96890625 8.97890625 -115.30890625 7.32890625 -114.62890625 5.62890625 C-113.96890625 5.62890625 -113.30890625 5.62890625 -112.62890625 5.62890625 C-112.62890625 4.96890625 -112.62890625 4.30890625 -112.62890625 3.62890625 C-111.96890625 3.62890625 -111.30890625 3.62890625 -110.62890625 3.62890625 C-110.62890625 2.96890625 -110.62890625 2.30890625 -110.62890625 1.62890625 C-109.96890625 1.62890625 -109.30890625 1.62890625 -108.62890625 1.62890625 C-108.62890625 0.96890625 -108.62890625 0.30890625 -108.62890625 -0.37109375 C-78.42837689 -27.18176778 -29.72535331 -27.81483911 0 0 Z " fill="#1D4A73" transform="translate(304.62890625,162.37109375)"/>
<path d="M0 0 C1.37109375 1.62890625 1.37109375 1.62890625 1.37109375 3.62890625 C2.03109375 3.62890625 2.69109375 3.62890625 3.37109375 3.62890625 C2.9088139 7.95379106 0.12033297 10.39514392 -2.81640625 13.31640625 C-3.28626953 13.81462891 -3.75613281 14.31285156 -4.24023438 14.82617188 C-7.54085781 18.14480689 -9.94476376 19.46161545 -14.62890625 19.62890625 C-18.94786204 18.24358081 -22.18225362 16.28762931 -25.87890625 13.69140625 C-35.93406032 6.80525304 -46.69404513 5.21735931 -58.62890625 5.62890625 C-59.3146875 5.6340625 -60.00046875 5.63921875 -60.70703125 5.64453125 C-70.72488286 6.16397541 -80.61574674 11.11774928 -88.17578125 17.52734375 C-89.62890625 18.62890625 -89.62890625 18.62890625 -91.62890625 18.62890625 C-91.62890625 19.28890625 -91.62890625 19.94890625 -91.62890625 20.62890625 C-92.28890625 20.62890625 -92.94890625 20.62890625 -93.62890625 20.62890625 C-93.62890625 21.28890625 -93.62890625 21.94890625 -93.62890625 22.62890625 C-94.28890625 22.62890625 -94.94890625 22.62890625 -95.62890625 22.62890625 C-95.89960938 23.36109375 -96.1703125 24.09328125 -96.44921875 24.84765625 C-97.58393992 27.52289292 -98.90545906 29.71053019 -100.50390625 32.12890625 C-106.89815778 42.71303408 -108.29417081 53.52822024 -108.62890625 65.62890625 C-108.95890625 65.62890625 -109.28890625 65.62890625 -109.62890625 65.62890625 C-109.95890625 67.60890625 -110.28890625 69.58890625 -110.62890625 71.62890625 C-113.18469071 67.82873235 -112.5748849 64.84880024 -111.94140625 60.44140625 C-111.84617676 59.77810303 -111.75094727 59.1147998 -111.65283203 58.43139648 C-110.85135174 53.2306377 -109.51902925 48.52604312 -107.62890625 43.62890625 C-108.428125 43.70109375 -109.22734375 43.77328125 -110.05078125 43.84765625 C-117.59932752 44.48556157 -125.05503705 44.75172575 -132.62890625 44.62890625 C-133.12390625 45.61890625 -133.12390625 45.61890625 -133.62890625 46.62890625 C-132.3568919 34.37603332 -126.97173545 19.92741558 -118.62890625 10.62890625 C-117.96890625 10.62890625 -117.30890625 10.62890625 -116.62890625 10.62890625 C-115.96890625 8.97890625 -115.30890625 7.32890625 -114.62890625 5.62890625 C-113.96890625 5.62890625 -113.30890625 5.62890625 -112.62890625 5.62890625 C-112.62890625 4.96890625 -112.62890625 4.30890625 -112.62890625 3.62890625 C-111.96890625 3.62890625 -111.30890625 3.62890625 -110.62890625 3.62890625 C-110.62890625 2.96890625 -110.62890625 2.30890625 -110.62890625 1.62890625 C-109.96890625 1.62890625 -109.30890625 1.62890625 -108.62890625 1.62890625 C-108.62890625 0.96890625 -108.62890625 0.30890625 -108.62890625 -0.37109375 C-78.42837689 -27.18176778 -29.72535331 -27.81483911 0 0 Z " fill="#6FC4B9" transform="translate(304.62890625,162.37109375)"/>
<path d="M0 0 C0.85207031 0.64066406 1.70414063 1.28132813 2.58203125 1.94140625 C17.24312752 14.42347044 26.24793443 35.35629551 29 54 C31.08822217 81.76147434 25.46534797 104.41703427 7.5390625 125.95703125 C-8.09047199 144.03081959 -29.15232495 154.83939524 -53 157 C-77.51026697 158.17297389 -100.05165665 151.72966973 -119.48828125 136.48046875 C-119.98714844 135.99191406 -120.48601562 135.50335938 -121 135 C-121 134.34 -121 133.68 -121 133 C-121.61875 132.7525 -122.2375 132.505 -122.875 132.25 C-125.35068687 130.79371361 -125.95125002 129.62187494 -127 127 C-127.66 127 -128.32 127 -129 127 C-131.92915483 123.52987513 -134.43625118 119.74480165 -137 116 C-137.54398438 115.22140625 -138.08796875 114.4428125 -138.6484375 113.640625 C-141.98023043 108.52835013 -144.20423351 103.2188757 -146.25 97.5 C-146.49637207 96.81212402 -146.74274414 96.12424805 -146.99658203 95.41552734 C-155.18347475 71.4093174 -151.98975145 46.45049224 -141 24 C-140.34 23.01 -139.68 22.02 -139 21 C-137.68 21 -136.36 21 -135 21 C-135 22.65 -135 24.3 -135 26 C-135.66 26 -136.32 26 -137 26 C-137.12632812 26.57878906 -137.25265625 27.15757812 -137.3828125 27.75390625 C-137.99974767 29.99908172 -138.84348745 31.85448435 -139.875 33.9375 C-148.70726276 53.40059538 -147.71476184 76.96696004 -141.203125 96.890625 C-138.76111885 103.20178374 -135.42790591 108.97951047 -131.625 114.5625 C-130 117 -130 117 -130 119 C-129.34 119 -128.68 119 -128 119 C-124 123.47058824 -124 123.47058824 -124 126 C-123.34 126 -122.68 126 -122 126 C-122 126.66 -122 127.32 -122 128 C-121.34 128 -120.68 128 -120 128 C-120 128.66 -120 129.32 -120 130 C-119.34 130 -118.68 130 -118 130 C-118 130.66 -118 131.32 -118 132 C-116.35 132.66 -114.7 133.32 -113 134 C-113 134.66 -113 135.32 -113 136 C-112.3296875 136.25007812 -111.659375 136.50015625 -110.96875 136.7578125 C-108.07088738 137.97033923 -105.31279865 139.36342227 -102.53027344 140.81811523 C-94.84383169 144.81939064 -87.41483459 147.82247701 -79 150 C-78.40840088 150.1743457 -77.81680176 150.34869141 -77.20727539 150.52832031 C-63.07593208 153.54809194 -45.43393658 152.1539002 -32 147 C-30.96488281 146.63777344 -29.92976563 146.27554688 -28.86328125 145.90234375 C-22.15410382 143.36814741 -16.45104494 139.88695767 -10.59375 135.76953125 C-8.4359813 134.29743905 -6.36667028 133.08844506 -4 132 C-4 131.34 -4 130.68 -4 130 C-3.34 130 -2.68 130 -2 130 C-2 129.34 -2 128.68 -2 128 C-1.34 128 -0.68 128 0 128 C0 127.34 0 126.68 0 126 C0.66 126 1.32 126 2 126 C2 125.34 2 124.68 2 124 C2.66 124 3.32 124 4 124 C4.66 122.35 5.32 120.7 6 119 C6.66 119 7.32 119 8 119 C8.27070313 118.27296875 8.54140625 117.5459375 8.8203125 116.796875 C9.96795512 114.07597395 11.30187997 111.74416958 12.875 109.25 C24.24518135 90.4656858 26.66207484 68.14015392 21.9609375 46.8359375 C16.57072978 25.31892944 2.95582845 5.71957859 -16 -6 C-22.73610997 -9.79608764 -29.55689042 -12.89742667 -37 -15 C-37.65355469 -15.19335938 -38.30710937 -15.38671875 -38.98046875 -15.5859375 C-61.39243082 -21.75929232 -85.1784591 -17.04342004 -105.18945312 -6.06835938 C-108.51592016 -4.10549263 -111.48289662 -1.77154887 -114.3984375 0.75 C-116 2 -116 2 -118 2 C-118 2.66 -118 3.32 -118 4 C-118.66 4 -119.32 4 -120 4 C-120 4.66 -120 5.32 -120 6 C-120.66 6 -121.32 6 -122 6 C-122 6.66 -122 7.32 -122 8 C-123.32 8.33 -124.64 8.66 -126 9 C-126.66015625 7.1953125 -126.66015625 7.1953125 -127 5 C-118.55019002 -9.09470378 -96.74057353 -17.13215906 -82 -21 C-51.89495825 -28.37011396 -23.50293791 -18.88962914 0 0 Z " fill="#619DA7" transform="translate(311,155)"/>
<path d="M0 0 C3.18500291 1.62145603 5.22111096 2.97328264 7.375 5.8125 C9.47037113 13.14629896 7.07416926 17.63357806 3.59375 24.17578125 C1.85009501 27.26564046 0.17862209 30.19891445 -2 33 C-2.66 33 -3.32 33 -4 33 C-4.2165625 33.53109375 -4.433125 34.0621875 -4.65625 34.609375 C-6.49840252 37.88669285 -8.96137769 40.50802551 -11.5 43.25 C-11.99886719 43.80429688 -12.49773437 44.35859375 -13.01171875 44.9296875 C-14.2968354 46.3285008 -15.64433768 47.66944254 -17 49 C-17.66 49 -18.32 49 -19 49 C-19 49.66 -19 50.32 -19 51 C-20.73548169 52.44526736 -22.53975963 53.8087222 -24.375 55.125 C-25.37273437 55.84945312 -26.37046875 56.57390625 -27.3984375 57.3203125 C-30 59 -30 59 -32 59 C-32 59.66 -32 60.32 -32 61 C-35.83822178 62.80622201 -38.76365622 63.51873597 -43 63 C-46.6578218 60.96006092 -48.66946174 59.49580738 -51 56 C-51.75599312 50.41360877 -52.15756276 45.57557153 -48.75 40.9375 C-47.8425 40.298125 -46.935 39.65875 -46 39 C-45.278125 38.401875 -44.55625 37.80375 -43.8125 37.1875 C-42 36 -42 36 -40 36 C-40 35.34 -40 34.68 -40 34 C-38.41324397 32.6817255 -36.7780801 31.42158611 -35.125 30.1875 C-27.21623254 23.8686394 -21.38146868 16.11029506 -16.1875 7.4375 C-12.09970769 0.74709944 -7.73734592 -1.36220879 0 0 Z M-19 20 C-19 20.66 -19 21.32 -19 22 C-19.66 22 -20.32 22 -21 22 C-24.02517909 25.05558423 -24.02517909 25.05558423 -25 29 C-25.66 29 -26.32 29 -27 29 C-27 29.66 -27 30.32 -27 31 C-27.66 31 -28.32 31 -29 31 C-29.33 31.99 -29.66 32.98 -30 34 C-26.28400809 34.20086443 -25.22791555 34.1519437 -22 32 C-22 31.34 -22 30.68 -22 30 C-21.34 30 -20.68 30 -20 30 C-19.34 28.35 -18.68 26.7 -18 25 C-17.34 25 -16.68 25 -16 25 C-16 23.35 -16 21.7 -16 20 C-16.99 20 -17.98 20 -19 20 Z " fill="#1D6986" transform="translate(286,195)"/>
<path d="M0 0 C0.85207031 0.64066406 1.70414063 1.28132813 2.58203125 1.94140625 C16.97977522 14.19925936 26.72030925 35.52865954 29 54 C29.13772827 57.34220603 29.12799543 60.65789705 29 64 C28.67 64 28.34 64 28 64 C27.77213542 61.94921875 27.54427083 59.8984375 27.31640625 57.84765625 C27.18113386 55.98859771 27.18113386 55.98859771 26 55 C25.01 56.98 25.01 56.98 24 59 C23.84144531 57.99582031 23.68289063 56.99164063 23.51953125 55.95703125 C19.64742958 32.69580258 8.52641902 12.06591534 -10.4375 -2.375 C-18.63213756 -7.99785401 -27.43465853 -12.29792614 -37 -15 C-37.65355469 -15.19335938 -38.30710937 -15.38671875 -38.98046875 -15.5859375 C-61.39243082 -21.75929232 -85.1784591 -17.04342004 -105.18945312 -6.06835938 C-108.51592016 -4.10549263 -111.48289662 -1.77154887 -114.3984375 0.75 C-116 2 -116 2 -118 2 C-118 2.66 -118 3.32 -118 4 C-118.66 4 -119.32 4 -120 4 C-120 4.66 -120 5.32 -120 6 C-120.66 6 -121.32 6 -122 6 C-122 6.66 -122 7.32 -122 8 C-123.32 8.33 -124.64 8.66 -126 9 C-126.66015625 7.1953125 -126.66015625 7.1953125 -127 5 C-118.55019002 -9.09470378 -96.74057353 -17.13215906 -82 -21 C-51.89495825 -28.37011396 -23.50293791 -18.88962914 0 0 Z " fill="#9FD0C4" transform="translate(311,155)"/>
<path d="M0 0 C3.52092935 1.46070988 6.40382449 3.19123443 9 6 C9.73046875 8.203125 9.73046875 8.203125 10 10 C7.75 11.625 7.75 11.625 5 13 C2.9375 12.3125 2.9375 12.3125 1 11 C-2.70822264 8.69834457 -5.66859897 8.62660336 -10 9 C-14.22603445 10.55906043 -14.22603445 10.55906043 -17.15625 13.796875 C-18.13236768 16.34562671 -18.23315505 18.2772987 -18.1875 21 C-18.18105469 21.845625 -18.17460937 22.69125 -18.16796875 23.5625 C-18.01154076 25.83252477 -17.63089814 27.81961604 -17 30 C-16.34 30 -15.68 30 -15 30 C-15 30.66 -15 31.32 -15 32 C-11.1187419 33.2937527 -7.02656396 33.72509006 -3 33 C-0.61028976 31.55810732 1.00393647 29.99606353 3 28 C7.67692308 29.47692308 7.67692308 29.47692308 9.3125 32.125 C9.539375 32.74375 9.76625 33.3625 10 34 C5.74342878 38.92166048 1.48879662 41.36372397 -5.01171875 42.28515625 C-11.38816228 42.57328631 -16.74849665 40.50100223 -22 37 C-22 36.34 -22 35.68 -22 35 C-22.66 35 -23.32 35 -24 35 C-28.10667229 28.32665753 -29.0081279 22.79198853 -28 15 C-26.18257419 8.20737102 -21.80305089 4.63004699 -16 1 C-11.28334746 -1.35832627 -5.10034394 -0.58555451 0 0 Z " fill="#2A3862" transform="translate(171,322)"/>
<path d="M0 0 C0.67289062 0.13535156 1.34578125 0.27070313 2.0390625 0.41015625 C2.3690625 0.08015625 2.6990625 -0.24984375 3.0390625 -0.58984375 C6.0390625 -0.71484375 6.0390625 -0.71484375 9.0390625 -0.58984375 C10.0390625 0.41015625 10.0390625 0.41015625 10.15258789 3.18579102 C10.14735107 4.39549561 10.14211426 5.6052002 10.13671875 6.8515625 C10.13349609 8.15673828 10.13027344 9.46191406 10.12695312 10.80664062 C10.11859651 12.19531315 10.11013155 13.58398502 10.1015625 14.97265625 C10.09654916 16.36523281 10.09198597 17.75781106 10.08789062 19.15039062 C10.07605684 22.57035495 10.0595713 25.99023469 10.0390625 29.41015625 C6.37239583 29.41015625 2.70572917 29.41015625 -0.9609375 29.41015625 C-2.3778073 29.6380636 -3.79445499 29.86735402 -5.2109375 30.09765625 C-10.00958554 30.67883457 -12.73723032 29.656809 -16.9609375 27.41015625 C-16.9609375 26.75015625 -16.9609375 26.09015625 -16.9609375 25.41015625 C-17.6209375 25.41015625 -18.2809375 25.41015625 -18.9609375 25.41015625 C-22.29516265 19.99204039 -21.74591439 13.51630393 -20.9609375 7.41015625 C-18.90421587 2.9087904 -16.09605179 0.95588427 -11.7109375 -1.15234375 C-7.42871346 -1.65193655 -4.14770777 -1.04632507 0 0 Z M-11.3359375 8.97265625 C-13.58434269 12.34526404 -13.52877695 14.43528008 -12.9609375 18.41015625 C-11.54427083 20.99348958 -11.54427083 20.99348958 -8.9609375 22.41015625 C-5.2934162 22.74433554 -5.2934162 22.74433554 -1.9609375 22.41015625 C-1.9609375 21.75015625 -1.9609375 21.09015625 -1.9609375 20.41015625 C-1.3009375 20.41015625 -0.6409375 20.41015625 0.0390625 20.41015625 C1.63608792 17.21610541 1.54249253 13.87744196 1.0390625 10.41015625 C-1.14847033 7.71780815 -2.54517705 7.47078798 -5.9609375 6.97265625 C-9.00766634 7.20081595 -9.00766634 7.20081595 -11.3359375 8.97265625 Z " fill="#1B2A59" transform="translate(346.9609375,333.58984375)"/>
<path d="M0 0 C3.57680023 2.43702322 4.79060862 3.99918599 6.80078125 8.01953125 C6.80078125 10.98953125 6.80078125 13.95953125 6.80078125 17.01953125 C-3.59421875 17.51453125 -3.59421875 17.51453125 -14.19921875 18.01953125 C-13.53921875 19.00953125 -12.87921875 19.99953125 -12.19921875 21.01953125 C-9.45646795 21.49067863 -7.00362978 21.19758909 -4.19921875 21.01953125 C-3.86921875 20.68953125 -3.53921875 20.35953125 -3.19921875 20.01953125 C-0.52863024 19.87837964 2.12510363 19.97706018 4.80078125 20.01953125 C5.13078125 21.00953125 5.46078125 21.99953125 5.80078125 23.01953125 C1.54013557 27.64537514 -1.28648918 29.74983407 -7.57421875 30.33203125 C-11.91428896 29.95788727 -14.38540362 29.11339054 -18.19921875 27.01953125 C-19.63671875 24.83203125 -19.63671875 24.83203125 -20.19921875 23.01953125 C-20.85921875 23.01953125 -21.51921875 23.01953125 -22.19921875 23.01953125 C-24.53179175 14.83035411 -23.99908006 10.61925387 -20.19921875 3.01953125 C-19.53921875 3.01953125 -18.87921875 3.01953125 -18.19921875 3.01953125 C-18.19921875 2.35953125 -18.19921875 1.69953125 -18.19921875 1.01953125 C-12.46630258 -1.55717656 -5.92539312 -2.64169391 0 0 Z M-14.19921875 9.01953125 C-14.19921875 9.67953125 -14.19921875 10.33953125 -14.19921875 11.01953125 C-10.23921875 11.01953125 -6.27921875 11.01953125 -2.19921875 11.01953125 C-3.77758173 7.33575902 -3.77758173 7.33575902 -5.19921875 6.01953125 C-9.23453416 5.58328094 -11.26398253 6.19300748 -14.19921875 9.01953125 Z " fill="#293861" transform="translate(296.19921875,333.98046875)"/>
<path d="M0 0 C3 2 3 2 3.6875 5.125 C3.82199993 6.74777092 3.92020651 8.37362099 4 10 C4.06445312 11.15113281 4.12890625 12.30226562 4.1953125 13.48828125 C4.9232877 38.02104549 -5.11504845 58.74869626 -21.60742188 76.59936523 C-36.61629739 92.25892918 -56.37946281 101.29229011 -78 102 C-78.33 101.34 -78.66 100.68 -79 100 C-82.27555608 99.52998967 -82.27555608 99.52998967 -86.0625 99.375 C-87.35285156 99.30023438 -88.64320313 99.22546875 -89.97265625 99.1484375 C-91.47119141 99.07496094 -91.47119141 99.07496094 -93 99 C-93 98.67 -93 98.34 -93 98 C-92.4423999 97.9906543 -91.8847998 97.98130859 -91.31030273 97.97167969 C-70.63791439 97.53848326 -52.82594246 93.88302138 -35.59375 81.76953125 C-33.4359813 80.29743905 -31.36667028 79.08844506 -29 78 C-29 77.34 -29 76.68 -29 76 C-28.34 76 -27.68 76 -27 76 C-27 75.34 -27 74.68 -27 74 C-26.34 74 -25.68 74 -25 74 C-25 73.34 -25 72.68 -25 72 C-24.34 72 -23.68 72 -23 72 C-23 71.34 -23 70.68 -23 70 C-22.34 70 -21.68 70 -21 70 C-20.34 68.35 -19.68 66.7 -19 65 C-18.34 65 -17.68 65 -17 65 C-16.59394531 63.90945313 -16.59394531 63.90945313 -16.1796875 62.796875 C-15.03204488 60.07597395 -13.69812003 57.74416958 -12.125 55.25 C-3.48161447 40.97053826 -1.1675455 25.96791165 -0.4375 9.5 C-0.37272461 8.12328125 -0.37272461 8.12328125 -0.30664062 6.71875 C-0.20166544 4.47927939 -0.09950752 2.23971908 0 0 Z " fill="#5B9DA2" transform="translate(336,209)"/>
<path d="M0 0 C3.38053132 2.4735595 4.82589347 4.0010316 6.5625 7.875 C7.32308204 13.4620793 8.09285224 19.76504903 4.5 24.5 C0.22334447 27.95772149 -3.41250733 29.61727366 -8.875 30.3125 C-14.75495457 29.59040032 -18.80289124 27.55047398 -22.9375 23.3125 C-25.06858796 18.42875675 -25.2039865 14.12308614 -24.4375 8.875 C-19.55682154 -1.44951212 -10.23589455 -3.34992913 0 0 Z M-13.25 7.25 C-16.02127985 10.57553582 -15.9629194 12.55328677 -15.90625 16.75390625 C-15.32913868 19.36533499 -14.57179298 20.29037412 -12.4375 21.875 C-8.54245209 22.37073337 -6.34256283 22.45516848 -3 20.3125 C-0.83353972 16.93282196 -0.87461998 14.81516013 -1.4375 10.875 C-3.36274609 8.16539439 -4.81605891 7.12995019 -7.875 5.875 C-10.575585 5.68742067 -10.575585 5.68742067 -13.25 7.25 Z " fill="#253460" transform="translate(206.4375,334.125)"/>
<path d="M0 0 C3.18500291 1.62145603 5.22111096 2.97328264 7.375 5.8125 C9.31847084 12.61464795 7.2870119 17.10670837 4.09375 23.05859375 C3.7328125 23.69925781 3.371875 24.33992188 3 25 C2.67 24.34 2.34 23.68 2 23 C-0.87182587 22.52381188 -3.67120147 22.15832403 -6.5625 21.875 C-7.36880859 21.78863281 -8.17511719 21.70226562 -9.00585938 21.61328125 C-11.00304064 21.40056372 -13.00142737 21.19922145 -15 21 C-15 22.65 -15 24.3 -15 26 C-15.99 26.33 -16.98 26.66 -18 27 C-18 26.34 -18 25.68 -18 25 C-17.34 25 -16.68 25 -16 25 C-16 23.35 -16 21.7 -16 20 C-16.99 20 -17.98 20 -19 20 C-19.33 20.66 -19.66 21.32 -20 22 C-20 21.34 -20 20.68 -20 20 C-20.99 19.67 -21.98 19.34 -23 19 C-12.50373932 -2.43811733 -12.50373932 -2.43811733 0 0 Z " fill="#6BB5BF" transform="translate(286,195)"/>
<path d="M0 0 C3.5625 0.1875 3.5625 0.1875 5.5625 2.1875 C6.12319816 3.77147231 6.61566405 5.38021967 7.0625 7 C8.05758624 10.49037863 9.11675502 13.85116543 10.5625 17.1875 C12.66196114 14.03830829 13.80934003 11.10496355 15.125 7.5625 C17.45705185 1.29294815 17.45705185 1.29294815 18.5625 0.1875 C20.89547433 0.14657063 23.22955225 0.14508277 25.5625 0.1875 C26.56714699 2.82314796 26.61642615 4.01930178 25.7421875 6.74609375 C25.31164062 7.69613281 24.88109375 8.64617187 24.4375 9.625 C21.9602221 15.24385378 19.7333088 20.91853854 17.578125 26.66796875 C16.5625 29.1875 16.5625 29.1875 15.5625 30.1875 C14.04321962 30.25929964 12.52082518 30.27142007 11 30.25 C10.17371094 30.24097656 9.34742188 30.23195313 8.49609375 30.22265625 C7.53896484 30.20525391 7.53896484 30.20525391 6.5625 30.1875 C-2.69536214 10.88387256 -2.69536214 10.88387256 -4.4375 1.1875 C-3.4375 0.1875 -3.4375 0.1875 0 0 Z " fill="#314069" transform="translate(246.4375,332.8125)"/>
<path d="M0 0 C-3.4469025 2.297935 -5.73984727 2.55208088 -9.8125 3.1875 C-17.03233962 4.43831331 -22.78314807 7.05166726 -29.171875 10.57421875 C-32 12 -32 12 -35 12 C-35 12.66 -35 13.32 -35 14 C-35.680625 14.37125 -36.36125 14.7425 -37.0625 15.125 C-40.52371722 17.33428759 -42.73296277 19.93439896 -45.3515625 23.0625 C-47 25 -47 25 -48.6171875 26.5546875 C-50.25512504 28.11689105 -50.25512504 28.11689105 -51.5 31.125 C-53 34 -53 34 -56 35 C-57.72840348 36.14397385 -57.72840348 36.14397385 -59 38 C-59.2165625 39.423125 -59.2165625 39.423125 -59.4375 40.875 C-60.11501834 44.63899077 -61.5488678 46.11631506 -64 49 C-66.25059449 52.85816197 -67.39580907 55.51416387 -67 60 C-68.485 60.495 -68.485 60.495 -70 61 C-70.34494198 54.81174084 -69.49774125 50.64169925 -66.875 45.0625 C-66.56022705 44.37027344 -66.2454541 43.67804688 -65.92114258 42.96484375 C-63.47964459 37.72491439 -60.88696666 32.33222291 -57 28 C-56.34 28 -55.68 28 -55 28 C-54.34 26.35 -53.68 24.7 -53 23 C-52.34 23 -51.68 23 -51 23 C-51 22.34 -51 21.68 -51 21 C-50.34 21 -49.68 21 -49 21 C-49 20.34 -49 19.68 -49 19 C-48.34 19 -47.68 19 -47 19 C-47 18.34 -47 17.68 -47 17 C-33.93250022 5.3992604 -17.50154559 -2.49592489 0 0 Z " fill="#68B4A2" transform="translate(243,145)"/>
<path d="M0 0 C2.64 0 5.28 0 8 0 C8 11.22 8 22.44 8 34 C9.32 34 10.64 34 12 34 C12 36.31 12 38.62 12 41 C7.62855218 42.01661577 4.99531924 42.16888759 1 40 C-0.63945963 36.72108075 -0.12030178 33.09386466 -0.09765625 29.4921875 C-0.0962413 28.65156769 -0.09482635 27.81094788 -0.09336853 26.94485474 C-0.08776237 24.25486725 -0.07520886 21.56496241 -0.0625 18.875 C-0.05748579 17.05338662 -0.05292275 15.23177193 -0.04882812 13.41015625 C-0.03779094 8.94007223 -0.0205222 4.47005014 0 0 Z " fill="#303F67" transform="translate(217,322)"/>
<path d="M0 0 C3.0625 0.1875 3.0625 0.1875 5.0625 2.1875 C6.0525 1.5275 7.0425 0.8675 8.0625 0.1875 C10.39449388 0.10844936 12.73082622 0.09951231 15.0625 0.1875 C15.0625 3.1575 15.0625 6.1275 15.0625 9.1875 C12.0925 9.1875 9.1225 9.1875 6.0625 9.1875 C5.7325 16.1175 5.4025 23.0475 5.0625 30.1875 C2.4225 30.1875 -0.2175 30.1875 -2.9375 30.1875 C-3.78570722 23.31096288 -4.04603121 16.48350791 -4.0625 9.5625 C-4.06926758 8.35327881 -4.06926758 8.35327881 -4.07617188 7.11962891 C-4.05856938 0.25905762 -4.05856938 0.25905762 0 0 Z " fill="#1B2956" transform="translate(309.9375,332.8125)"/>
<path d="M0 0 C0.66 0 1.32 0 2 0 C2 9.57 2 19.14 2 29 C-1.66666667 29 -5.33333333 29 -9 29 C-10.093125 29.04125 -11.18625 29.0825 -12.3125 29.125 C-15.96106858 29.00131971 -18.62021674 28.31893981 -22 27 C-22 25.35 -22 23.7 -22 22 C-17.74433453 20.83936396 -14.3164922 21.23826608 -10 22 C-10 21.34 -10 20.68 -10 20 C-9.34 20 -8.68 20 -8 20 C-8 16.04 -8 12.08 -8 8 C-7.34 8 -6.68 8 -6 8 C-5.67 7.34 -5.34 6.68 -5 6 C-3.5625 3.875 -3.5625 3.875 -2 2 C-1.34 2 -0.68 2 0 2 C0 1.34 0 0.68 0 0 Z " fill="#2B3A66" transform="translate(355,334)"/>
<path d="M0 0 C6.06892629 -0.25287193 11.16200408 0.30167391 17 2 C16.43697042 5.94120709 15.3208055 8.7508723 13 12 C12.34 12 11.68 12 11 12 C10.78601563 12.53109375 10.57203125 13.0621875 10.3515625 13.609375 C8.48655451 16.90817526 5.95775758 19.50991708 3.375 22.25 C2.859375 22.80429688 2.34375 23.35859375 1.8125 23.9296875 C0.54574965 25.2902712 -0.72657815 26.64565837 -2 28 C-2.66 27.67 -3.32 27.34 -4 27 C-3.67 25.68 -3.34 24.36 -3 23 C-2.01 23 -1.02 23 0 23 C-0.20625 22.2575 -0.4125 21.515 -0.625 20.75 C-1.04408751 17.67669159 -0.61949011 16.57213134 1 14 C-0.98 14.66 -2.96 15.32 -5 16 C-5.144375 15.21625 -5.28875 14.4325 -5.4375 13.625 C-5.87798925 11.03578982 -5.87798925 11.03578982 -7 9 C-6.34 9 -5.68 9 -5 9 C-4.67 8.01 -4.34 7.02 -4 6 C-1.9375 5.3125 -1.9375 5.3125 0 5 C0 3.35 0 1.7 0 0 Z " fill="#1E8094" transform="translate(271,216)"/>
<path d="M0 0 C12.23657505 3.70805305 20.60373331 17.86460912 26.375 28.5625 C32.86718536 41.02405294 36.5394905 53.91330354 36 68 C35.67 68 35.34 68 35 68 C34.77213542 65.94921875 34.54427083 63.8984375 34.31640625 61.84765625 C34.18113386 59.98859771 34.18113386 59.98859771 33 59 C32.34 60.32 31.68 61.64 31 63 C30.84144531 61.99582031 30.68289063 60.99164063 30.51953125 59.95703125 C27.13558184 39.62832406 18.67607395 23.2144877 4.34765625 8.453125 C2.36932484 6.3859168 0.65004939 4.33076283 -1 2 C-0.67 1.34 -0.34 0.68 0 0 Z " fill="#88C3BF" transform="translate(304,151)"/>
<path d="M0 0 C3.38053132 2.4735595 4.82589347 4.0010316 6.5625 7.875 C7.98171237 18.41961528 7.98171237 18.41961528 5.43359375 22.828125 C4.0625 24.1875 4.0625 24.1875 1.5625 25.875 C1.2325 24.885 0.9025 23.895 0.5625 22.875 C1.5525 22.875 2.5425 22.875 3.5625 22.875 C3.5625 21.885 3.5625 20.895 3.5625 19.875 C4.2225 19.875 4.8825 19.875 5.5625 19.875 C4.9025 18.225 4.2425 16.575 3.5625 14.875 C4.2225 14.875 4.8825 14.875 5.5625 14.875 C5.5625 12.895 5.5625 10.915 5.5625 8.875 C4.9025 8.875 4.2425 8.875 3.5625 8.875 C3.2325 10.855 2.9025 12.835 2.5625 14.875 C1.9025 14.875 1.2425 14.875 0.5625 14.875 C0.2325 16.195 -0.0975 17.515 -0.4375 18.875 C-1.0975 18.545 -1.7575 18.215 -2.4375 17.875 C-2.416875 16.781875 -2.39625 15.68875 -2.375 14.5625 C-2.25205548 10.93115809 -2.25205548 10.93115809 -3.4375 7.875 C-8.18152275 6.81289957 -8.18152275 6.81289957 -12.8125 7.8125 C-15.30945421 10.98171112 -15.17591326 13.88580221 -15.4375 17.875 C-15.7675 17.875 -16.0975 17.875 -16.4375 17.875 C-16.4375 15.235 -16.4375 12.595 -16.4375 9.875 C-18.5120356 8.6513932 -18.5120356 8.6513932 -21.4375 8.875 C-22.0975 8.875 -22.7575 8.875 -23.4375 8.875 C-22.08467831 4.44758356 -20.20451112 2.51190779 -16.4375 -0.125 C-11.60603921 -2.5407304 -4.95939421 -1.62307447 0 0 Z " fill="#2A3A63" transform="translate(206.4375,334.125)"/>
<path d="M0 0 C2.4375 1.4375 2.4375 1.4375 4 4 C4.54214328 7.40935462 4.76695393 10.6220191 4 14 C1.1770298 16.6242518 -1.12617245 17.81982197 -5 18 C-11.11705686 16.03010033 -11.11705686 16.03010033 -13.5 13.25 C-14.23422132 9.94600405 -13.71615015 7.28235484 -13 4 C-9.38695979 -1.41956032 -6.23204362 -1.55801091 0 0 Z " fill="#6FCAAF" transform="translate(170,150)"/>
<path d="M0 0 C2.64 0 5.28 0 8 0 C8 9.57 8 19.14 8 29 C5.36 29 2.72 29 0 29 C-1.80279191 27.19720809 -1.13036605 24.45952299 -1.1328125 22.03125 C-1.13410156 20.82082031 -1.13539063 19.61039062 -1.13671875 18.36328125 C-1.13285156 17.08839844 -1.12898437 15.81351562 -1.125 14.5 C-1.12886719 13.22511719 -1.13273438 11.95023437 -1.13671875 10.63671875 C-1.13542969 9.42628906 -1.13414062 8.21585937 -1.1328125 6.96875 C-1.13168457 5.84919922 -1.13055664 4.72964844 -1.12939453 3.57617188 C-1 1 -1 1 0 0 Z " fill="#34426A" transform="translate(232,334)"/>
<path d="M0 0 C1.32 0 2.64 0 4 0 C4 1.65 4 3.3 4 5 C3.34 5 2.68 5 2 5 C1.87367188 5.57878906 1.74734375 6.15757812 1.6171875 6.75390625 C1.00025233 8.99908172 0.15651255 10.85448435 -0.875 12.9375 C-6.23465982 24.93847742 -6.90445707 38.07259338 -8 51 C-8.33 51 -8.66 51 -9 51 C-9.33 49.02 -9.66 47.04 -10 45 C-10.33 49.29 -10.66 53.58 -11 58 C-11.33 58 -11.66 58 -12 58 C-12.63936839 37.44184726 -11.81219764 17.71829646 0 0 Z " fill="#68AEAF" transform="translate(172,176)"/>
<path d="M0 0 C3 2 3 2 3.6875 5.125 C3.82199993 6.74777092 3.92020651 8.37362099 4 10 C4.06445312 11.15113281 4.12890625 12.30226562 4.1953125 13.48828125 C4.57677954 26.34372036 2.32441689 38.2679754 -3 50 C-3.33 49.34 -3.66 48.68 -4 48 C-5.98 48.495 -5.98 48.495 -8 49 C-6.95688086 45.22872312 -5.83874948 41.5514643 -4.5 37.875 C-0.46278269 25.70217811 -0.48098933 12.69558692 0 0 Z " fill="#73B8BA" transform="translate(336,209)"/>
<path d="M0 0 C0.66 0 1.32 0 2 0 C0.82191948 3.3529984 -0.19406612 5.7552529 -3 8 C-8.18552391 9.72850797 -13.63036905 9.25325484 -19 8.5 C-27.06889796 7.39092837 -33.9946518 7.32976786 -41 12 C-43.1875 11.625 -43.1875 11.625 -45 11 C-43.37278276 7.25818644 -41.5723657 5.51214032 -37.80078125 3.75390625 C-29.80889303 1.60267274 -20.50520819 2.59017129 -12.375 3.6875 C-7.74819585 4.26486189 -5.05662671 3.24409137 -1 1 C-0.67 0.67 -0.34 0.34 0 0 Z " fill="#6393A0" transform="translate(259,211)"/>
<path d="M0 0 C0.66 0.66 1.32 1.32 2 2 C1.47680176 2.23074219 0.95360352 2.46148437 0.41455078 2.69921875 C-13.27534317 8.76634705 -13.27534317 8.76634705 -25.28515625 17.56640625 C-27 19 -27 19 -29 19 C-29 19.66 -29 20.32 -29 21 C-29.66 21 -30.32 21 -31 21 C-31 21.66 -31 22.32 -31 23 C-31.66 23 -32.32 23 -33 23 C-33 23.66 -33 24.32 -33 25 C-34.32 25.33 -35.64 25.66 -37 26 C-37.66015625 24.1953125 -37.66015625 24.1953125 -38 22 C-31.81453362 11.68233409 -11.83274709 -1.018931 0 0 Z " fill="#92C8BF" transform="translate(222,138)"/>
<path d="M0 0 C1.7634375 -0.00773438 1.7634375 -0.00773438 3.5625 -0.015625 C7.01937245 0.25149696 9.77517473 1.01119517 13 2.25 C13 3.24 13 4.23 13 5.25 C8.57322444 6.13265997 4.56450476 6.24655986 0.0625 6.0625 C-6.00579123 6.01769194 -9.26058767 6.45847014 -14 10.25 C-14.556875 10.9925 -15.11375 11.735 -15.6875 12.5 C-16.120625 13.0775 -16.55375 13.655 -17 14.25 C-18.32 14.25 -19.64 14.25 -21 14.25 C-20.92647157 11.16180603 -20.62286468 8.9829844 -18.5859375 6.5859375 C-12.88671627 1.48927711 -7.66826871 -0.03363276 0 0 Z " fill="#89B36C" transform="translate(234,222.75)"/>
<path d="M0 0 C0.66 0.33 1.32 0.66 2 1 C1.236875 1.86625 0.47375 2.7325 -0.3125 3.625 C-2.19579472 5.85842839 -3.30886734 7.6296142 -4.625 10.3125 C-6 13 -6 13 -9 14 C-10.72840348 15.14397385 -10.72840348 15.14397385 -12 17 C-12.144375 17.94875 -12.28875 18.8975 -12.4375 19.875 C-13.11501834 23.63899077 -14.5488678 25.11631506 -17 28 C-19.25059449 31.85816197 -20.39580907 34.51416387 -20 39 C-21.485 39.495 -21.485 39.495 -23 40 C-23.34494198 33.81174084 -22.49774125 29.64169925 -19.875 24.0625 C-19.56022705 23.37027344 -19.2454541 22.67804688 -18.92114258 21.96484375 C-16.47964459 16.72491439 -13.88696666 11.33222291 -10 7 C-9.34 7 -8.68 7 -8 7 C-7.34 5.35 -6.68 3.7 -6 2 C-5.34 2.33 -4.68 2.66 -4 3 C-4 3.66 -4 4.32 -4 5 C-2.68 3.35 -1.36 1.7 0 0 Z " fill="#68ACAA" transform="translate(196,166)"/>
<path d="M0 0 C9 10.66666667 9 10.66666667 9 15 C9.66 15 10.32 15 11 15 C15 19.47058824 15 19.47058824 15 22 C15.66 22 16.32 22 17 22 C17 22.66 17 23.32 17 24 C17.66 24 18.32 24 19 24 C19 24.66 19 25.32 19 26 C19.66 26.33 20.32 26.66 21 27 C20.34 27 19.68 27 19 27 C19.33 28.32 19.66 29.64 20 31 C19.34 31 18.68 31 18 31 C18 30.34 18 29.68 18 29 C17.38125 28.7525 16.7625 28.505 16.125 28.25 C13.64931313 26.79371361 13.04874998 25.62187494 12 23 C11.34 23 10.68 23 10 23 C5.12653411 17.14753765 0.73901284 10.63373246 -3 4 C-2.67 3.34 -2.34 2.68 -2 2 C-1.34 2.33 -0.68 2.66 0 3 C0 2.01 0 1.02 0 0 Z " fill="#4F929D" transform="translate(172,259)"/>
<path d="M0 0 C7.78722773 2.35976598 12.51983083 8.39753018 17.3125 14.5625 C17.74522217 15.11655518 18.17794434 15.67061035 18.6237793 16.24145508 C20.98542867 19.36132554 22.74889054 22.28814487 24 26 C22.68 26.99 21.36 27.98 20 29 C19.62230469 28.34515625 19.24460937 27.6903125 18.85546875 27.015625 C14.70045516 20.12628162 9.97644601 14.41345875 4.453125 8.62890625 C2.46009983 6.49306877 0.68667333 4.37820939 -1 2 C-0.67 1.34 -0.34 0.68 0 0 Z " fill="#93C9BD" transform="translate(304,151)"/>
<path d="M0 0 C0.556875 0.226875 1.11375 0.45375 1.6875 0.6875 C-0.05151801 4.89012685 -2.38684398 6.67107888 -6.34765625 8.76171875 C-10.56387932 10.0782469 -14.54897599 9.93816815 -18.9375 9.875 C-20.22527344 9.8740332 -20.22527344 9.8740332 -21.5390625 9.87304688 C-25.11328129 9.84791565 -27.892977 9.827341 -31.3125 8.6875 C-30.6525 7.3675 -29.9925 6.0475 -29.3125 4.6875 C-27.68441406 4.72230469 -27.68441406 4.72230469 -26.0234375 4.7578125 C-24.57813193 4.7765827 -23.13281885 4.79478156 -21.6875 4.8125 C-20.61822266 4.83763672 -20.61822266 4.83763672 -19.52734375 4.86328125 C-13.90927843 4.91482313 -9.50783029 4.09878376 -4.6875 1 C-2.3125 -0.3125 -2.3125 -0.3125 0 0 Z " fill="#478697" transform="translate(316.3125,220.3125)"/>
<path d="M0 0 C3.0625 0.1875 3.0625 0.1875 5.0625 2.1875 C6.0525 1.5275 7.0425 0.8675 8.0625 0.1875 C10.39449388 0.10844936 12.73082622 0.09951231 15.0625 0.1875 C15.0625 3.1575 15.0625 6.1275 15.0625 9.1875 C12.0925 9.1875 9.1225 9.1875 6.0625 9.1875 C5.7325 16.1175 5.4025 23.0475 5.0625 30.1875 C2.4225 30.1875 -0.2175 30.1875 -2.9375 30.1875 C-2.9375 29.8575 -2.9375 29.5275 -2.9375 29.1875 C-0.6275 29.1875 1.6825 29.1875 4.0625 29.1875 C4.05089844 27.93453125 4.03929687 26.6815625 4.02734375 25.390625 C4.01796284 23.73958483 4.00886296 22.08854304 4 20.4375 C3.99162109 19.6125 3.98324219 18.7875 3.97460938 17.9375 C3.97138672 17.13828125 3.96816406 16.3390625 3.96484375 15.515625 C3.95960693 14.7824707 3.95437012 14.04931641 3.94897461 13.29394531 C4.0649891 11.1413151 4.47176729 9.2560865 5.0625 7.1875 C6.0525 7.1875 7.0425 7.1875 8.0625 7.1875 C7.7325 6.5275 7.4025 5.8675 7.0625 5.1875 C5.7425 5.1875 4.4225 5.1875 3.0625 5.1875 C3.0625 4.1975 3.0625 3.2075 3.0625 2.1875 C1.7425 2.1875 0.4225 2.1875 -0.9375 2.1875 C-2.45856634 5.22963267 -2.31179338 8.46797572 -2.5 11.8125 C-2.54318359 12.51890625 -2.58636719 13.2253125 -2.63085938 13.953125 C-2.73694751 15.69768537 -2.83772889 17.44256697 -2.9375 19.1875 C-3.2675 19.1875 -3.5975 19.1875 -3.9375 19.1875 C-3.96433987 16.20827407 -3.98426037 13.22928705 -4 10.25 C-4.00837891 9.39986328 -4.01675781 8.54972656 -4.02539062 7.67382812 C-4.02861328 6.86494141 -4.03183594 6.05605469 -4.03515625 5.22265625 C-4.04039307 4.4737915 -4.04562988 3.72492676 -4.05102539 2.95336914 C-3.8543201 -0.10634992 -3.09513434 0.19756177 0 0 Z " fill="#505B7B" transform="translate(309.9375,332.8125)"/>
<path d="M0 0 C1.59524536 0.37370316 3.19855642 0.71778036 4.8125 1 C5.1425 0.67 5.4725 0.34 5.8125 0 C7.81208364 -0.04080783 9.81295254 -0.04254356 11.8125 0 C10.78458168 3.08375495 10.11143164 3.87790925 7.8125 6 C7.3175 6.53625 6.8225 7.0725 6.3125 7.625 C4.8125 9 4.8125 9 1.8125 10 C1.1525 9.67 0.4925 9.34 -0.1875 9 C-1.56092831 8.9310528 -2.93752102 8.91532292 -4.3125 8.9375 C-5.59125 8.958125 -6.87 8.97875 -8.1875 9 C-8.5175 9.66 -8.8475 10.32 -9.1875 11 C-9.1875 9.68 -9.1875 8.36 -9.1875 7 C-7.2075 6.67 -5.2275 6.34 -3.1875 6 C-4.5075 4.68 -5.8275 3.36 -7.1875 2 C-6.8575 2.99 -6.5275 3.98 -6.1875 5 C-7.1775 4.67 -8.1675 4.34 -9.1875 4 C-10.1775 4 -11.1675 4 -12.1875 4 C-12.8475 3.67 -13.5075 3.34 -14.1875 3 C-8.98080651 -0.32649862 -6.06733938 -1.43393545 0 0 Z " fill="#38476D" transform="translate(344.1875,333)"/>
<path d="M0 0 C1.32 0 2.64 0 4 0 C3.716064 3.31258663 3.06719476 4.91390671 1 7.5625 C-5.91723828 13.1827561 -12.1870591 14.66235046 -21 14 C-21.5625 12.0625 -21.5625 12.0625 -22 10 C-20.18807014 8.18807014 -17.2644497 8.48395042 -14.8125 8.1875 C-9.41869499 7.39498918 -6.06437236 6.62498075 -2 3 C-1.34 2.01 -0.68 1.02 0 0 Z " fill="#9EC284" transform="translate(314,207)"/>
<path d="M0 0 C0 2.97 0 5.94 0 9 C-2.91691525 9.05401695 -5.83282724 9.09368066 -8.75 9.125 C-9.575 9.14175781 -10.4 9.15851563 -11.25 9.17578125 C-12.04921875 9.18222656 -12.8484375 9.18867188 -13.671875 9.1953125 C-14.4050293 9.20578613 -15.13818359 9.21625977 -15.89355469 9.22705078 C-18.29896076 8.96777544 -19.91251494 8.19225925 -22 7 C-21.67 6.01 -21.34 5.02 -21 4 C-14.565 3.505 -14.565 3.505 -8 3 C-7.67 2.01 -7.34 1.02 -7 0 C-4 -1 -4 -1 0 0 Z " fill="#1D2952" transform="translate(303,342)"/>
<path d="M0 0 C-0.598125 0.165 -1.19625 0.33 -1.8125 0.5 C-5.20162201 2.82396938 -5.81537179 6.1895717 -7 10 C-7.33 10.99 -7.66 11.98 -8 13 C-8 14.32 -8 15.64 -8 17 C-7.34 17.33 -6.68 17.66 -6 18 C-6.33 18.66 -6.66 19.32 -7 20 C-7.66 19.67 -8.32 19.34 -9 19 C-8.67 20.98 -8.34 22.96 -8 25 C-7.01 25.33 -6.02 25.66 -5 26 C-5.66 27.32 -6.32 28.64 -7 30 C-6.34 30 -5.68 30 -5 30 C-5.75 36.75 -5.75 36.75 -8 39 C-11.05444312 26.34587848 -13.09465106 13.65916024 -9 1 C-5.92677456 0.08941469 -3.19902639 -0.08886184 0 0 Z " fill="#3F7A90" transform="translate(181,206)"/>
<path d="M0 0 C5.77758415 0.06410634 11.50419328 0.58811828 17.25390625 1.125 C18.31029297 1.22039062 19.36667969 1.31578125 20.45507812 1.4140625 C23.03420211 1.64746739 25.61293424 1.88451743 28.19140625 2.125 C27.86140625 3.445 27.53140625 4.765 27.19140625 6.125 C1.25509564 6.72429858 1.25509564 6.72429858 -3.6640625 2.55078125 C-4.04175781 2.08027344 -4.41945312 1.60976563 -4.80859375 1.125 C-3.80859375 0.125 -3.80859375 0.125 0 0 Z " fill="#4F8F99" transform="translate(230.80859375,305.875)"/>
<path d="M0 0 C1.32 0.33 2.64 0.66 4 1 C2.7580393 4.43927579 1.44259716 7.25207819 -1 10 C-1.66 10 -2.32 10 -3 10 C-3 10.66 -3 11.32 -3 12 C-3.66 12 -4.32 12 -5 12 C-5 12.66 -5 13.32 -5 14 C-1.535 13.505 -1.535 13.505 2 13 C1.34 14.65 0.68 16.3 0 18 C-2.97 18 -5.94 18 -9 18 C-9 17.01 -9 16.02 -9 15 C-10.32 14.34 -11.64 13.68 -13 13 C-12.48050781 12.56429687 -11.96101562 12.12859375 -11.42578125 11.6796875 C-7.16777334 8.04345894 -3.44527348 4.41425664 0 0 Z " fill="#3E8596" transform="translate(262,214)"/>
<path d="M0 0 C2.32809543 0.68473395 4.66237777 1.34853151 7 2 C9.68666006 2.9534825 12.33994915 3.97331371 15 5 C15 5.66 15 6.32 15 7 C15.99 7 16.98 7 18 7 C18 8.32 18 9.64 18 11 C14.82291528 9.45238028 11.76277714 7.7399022 8.6875 6 C-4.36538916 -1.1150364 -17.65686479 -0.50133752 -32 1 C-32 0.01 -32 -0.98 -32 -2 C-7.83746792 -5.22497861 -7.83746792 -5.22497861 0 0 Z " fill="#9CCEC8" transform="translate(267,168)"/>
<path d="M0 0 C5.61983724 -0.40806461 9.22087963 0.67009611 13.9375 3.5625 C14.54287598 3.92021484 15.14825195 4.27792969 15.77197266 4.64648438 C20.63777847 7.59798145 24.95807836 10.98318346 29 15 C28.34 16.32 27.68 17.64 27 19 C25 17.625 25 17.625 23 16 C23 15.34 23 14.68 23 14 C22.484375 13.7525 21.96875 13.505 21.4375 13.25 C18.22815849 11.60418384 15.12414336 9.8023904 12 8 C12 7.34 12 6.68 12 6 C11.42765625 5.86722656 10.8553125 5.73445312 10.265625 5.59765625 C8.02349125 5.00619683 5.91420381 4.26711146 3.75 3.4375 C3.04359375 3.16808594 2.3371875 2.89867187 1.609375 2.62109375 C1.07828125 2.41613281 0.5471875 2.21117187 0 2 C0 1.34 0 0.68 0 0 Z " fill="#81BFAC" transform="translate(277,149)"/>
<path d="M0 0 C0 1.32 0 2.64 0 4 C-3.79219129 3.88859815 -7.58352194 3.75834624 -11.375 3.625 C-12.43589844 3.5940625 -13.49679688 3.563125 -14.58984375 3.53125 C-21.24602788 3.28623709 -27.51818952 2.54467116 -34 1 C-34 0.67 -34 0.34 -34 0 C-22.54686839 -1.26254994 -11.45313161 -1.26254994 0 0 Z " fill="#83C4AD" transform="translate(267,143)"/>
<path d="M0 0 C3.81484173 0.54497739 5.48786382 2.15291233 8 5 C11.24186779 9.86280169 10.7323834 15.31869579 10 21 C8.56560797 23.51393447 7.43992275 24.35305214 5 26 C4.67 25.01 4.34 24.02 4 23 C4.99 23 5.98 23 7 23 C7 22.01 7 21.02 7 20 C7.66 20 8.32 20 9 20 C8.34 18.35 7.68 16.7 7 15 C7.66 15 8.32 15 9 15 C9 13.02 9 11.04 9 9 C8.34 9 7.68 9 7 9 C6.67 10.98 6.34 12.96 6 15 C5.34 15 4.68 15 4 15 C3.67 16.32 3.34 17.64 3 19 C2.34 18.67 1.68 18.34 1 18 C1.020625 16.906875 1.04125 15.81375 1.0625 14.6875 C1.18544452 11.05615809 1.18544452 11.05615809 0 8 C0.66 8 1.32 8 2 8 C2 5.69 2 3.38 2 1 C1.34 0.67 0.68 0.34 0 0 Z " fill="#44537A" transform="translate(203,334)"/>
<path d="M0 0 C4.67692308 1.47692308 4.67692308 1.47692308 6.3125 4.125 C6.539375 4.74375 6.76625 5.3625 7 6 C1.36448598 11.94859813 1.36448598 11.94859813 -2 13 C-4.75 12.625 -4.75 12.625 -7 12 C-6.505 11.38125 -6.01 10.7625 -5.5 10.125 C-3.80777227 8.16119096 -3.80777227 8.16119096 -4 6 C-4.66 5.67 -5.32 5.34 -6 5 C-4.02 3.35 -2.04 1.7 0 0 Z " fill="#414E73" transform="translate(174,350)"/>
<path d="M0 0 C0.66 0 1.32 0 2 0 C3.02852708 3.08558124 3 4.77356651 3 8 C-1.02248275 10.01124138 -5.25733112 9.21604913 -9.4375 8 C-10.283125 7.67 -11.12875 7.34 -12 7 C-12 5.35 -12 3.7 -12 2 C-7.74433453 0.83936396 -4.3164922 1.23826608 0 2 C0 1.34 0 0.68 0 0 Z " fill="#25325A" transform="translate(345,354)"/>
<path d="M0 0 C0.66 0 1.32 0 2 0 C2.04254356 1.99954746 2.04080783 4.00041636 2 6 C1.67 6.33 1.34 6.66 1 7 C1.40929986 9.05396726 1.40929986 9.05396726 2 11 C1.34 11 0.68 11 0 11 C0 11.99 0 12.98 0 14 C-0.99 14.495 -0.99 14.495 -2 15 C-2 15.99 -2 16.98 -2 18 C-3.98 18.33 -5.96 18.66 -8 19 C-8.25 13.375 -8.25 13.375 -6 10 C-5.34 10 -4.68 10 -4 10 C-4 7.36 -4 4.72 -4 2 C-3.67 3.32 -3.34 4.64 -3 6 C-2.34 6 -1.68 6 -1 6 C-0.67 4.02 -0.34 2.04 0 0 Z " fill="#1A2958" transform="translate(210,343)"/>
<path d="M0 0 C10.56927418 -0.86006752 10.56927418 -0.86006752 15.125 2.25 C17.9198919 4.92337486 18.38240271 5.47517645 19 9 C17.02 9.33 15.04 9.66 13 10 C13 10.99 13 11.98 13 13 C8.05 13 3.1 13 -2 13 C-1.67 12.01 -1.34 11.02 -1 10 C-1 10.66 -1 11.32 -1 12 C2.96 12 6.92 12 11 12 C10.01 10.35 9.02 8.7 8 7 C8.33 6.67 8.66 6.34 9 6 C8.34 5.34 7.68 4.68 7 4 C7.99 4 8.98 4 10 4 C10 3.01 10 2.02 10 1 C6.7 1 3.4 1 0 1 C0 0.67 0 0.34 0 0 Z " fill="#637093" transform="translate(283,333)"/>
<path d="M0 0 C0.66 0.33 1.32 0.66 2 1 C2 1.99 2 2.98 2 4 C-0.20124308 5.18203738 -2.40941829 6.34540108 -4.625 7.5 C-5.55119141 8.00080078 -5.55119141 8.00080078 -6.49609375 8.51171875 C-10.51512794 10.58469428 -13.48941245 11.38860447 -18 11 C-17.859375 9.1640625 -17.859375 9.1640625 -17 7 C-14.453125 5.5859375 -14.453125 5.5859375 -11.25 4.375 C-9.67992187 3.76785156 -9.67992187 3.76785156 -8.078125 3.1484375 C-7.06234375 2.76945312 -6.0465625 2.39046875 -5 2 C-4.08734375 1.60039062 -3.1746875 1.20078125 -2.234375 0.7890625 C-1.12835938 0.39847656 -1.12835938 0.39847656 0 0 Z " fill="#5C9FA4" transform="translate(296,295)"/>
<path d="M0 0 C0.33 0.99 0.66 1.98 1 3 C-2.11307513 6.37991014 -4.50358001 8.82236619 -9 10 C-11.3320802 10.07646165 -13.66845878 10.09143299 -16 10 C-16 9.67 -16 9.34 -16 9 C-14.02 9 -12.04 9 -10 9 C-9.67 7.35 -9.34 5.7 -9 4 C-11.97 3.505 -11.97 3.505 -15 3 C-15 2.67 -15 2.34 -15 2 C-9.75614911 0.2520497 -5.52677733 -0.19392201 0 0 Z " fill="#505D7D" transform="translate(301,354)"/>
<path d="M0 0 C0.928125 0.20625 1.85625 0.4125 2.8125 0.625 C4.14407895 6.07236842 4.14407895 6.07236842 2.6875 8.5 C0.21772151 9.9818671 -1.35363833 9.9883156 -4.1875 9.625 C-6.1875 7.625 -6.1875 7.625 -6.5 4.625 C-6.396875 3.635 -6.29375 2.645 -6.1875 1.625 C-3.1875 -0.375 -3.1875 -0.375 0 0 Z " fill="#76849C" transform="translate(237.1875,321.375)"/>
<path d="M0 0 C3.98542514 1.36643148 6.92539863 3.10109014 10 6 C10 6.99 10 7.98 10 9 C7.75 10.8125 7.75 10.8125 5 12 C1.89616615 11.05944429 -0.46409829 8.9924942 -3 7 C-2.2575 6.38125 -2.2575 6.38125 -1.5 5.75 C0.43386092 3.87797662 0.43386092 3.87797662 0 0 Z " fill="#39476D" transform="translate(171,323)"/>
<path d="M0 0 C4.29 0 8.58 0 13 0 C12.67 1.32 12.34 2.64 12 4 C12.33 4.66 12.66 5.32 13 6 C5.25 6.125 5.25 6.125 3 5 C2.67 5.66 2.34 6.32 2 7 C-0.475 6.01 -0.475 6.01 -3 5 C-2.34 4.67 -1.68 4.34 -1 4 C-0.67 2.68 -0.34 1.36 0 0 Z " fill="#24345D" transform="translate(280,334)"/>
<path d="M0 0 C7.59 0 15.18 0 23 0 C21 3 21 3 18 4 C11.9624939 4.29621242 5.92327439 4.3162832 0 3 C0 2.01 0 1.02 0 0 Z " fill="#1D3159" transform="translate(239,277)"/>
<path d="M0 0 C0.66 0.66 1.32 1.32 2 2 C2.66 1.67 3.32 1.34 4 1 C3.67 7.6 3.34 14.2 3 21 C2.67 21 2.34 21 2 21 C1.67 19.02 1.34 17.04 1 15 C0.67 19.29 0.34 23.58 0 28 C-0.33 28 -0.66 28 -1 28 C-1.02898097 23.89584811 -1.0467922 19.79172247 -1.0625 15.6875 C-1.07087891 14.52025391 -1.07925781 13.35300781 -1.08789062 12.15039062 C-1.09111328 11.03212891 -1.09433594 9.91386719 -1.09765625 8.76171875 C-1.10289307 7.73006592 -1.10812988 6.69841309 -1.11352539 5.63549805 C-1 3 -1 3 0 0 Z " fill="#71B5B9" transform="translate(161,206)"/>
<path d="M0 0 C-1.13335337 3.92314627 -2.08763178 6.2041265 -5 9 C-7.25077638 12.83465605 -8.39391326 15.53564975 -8 20 C-8.99 20.33 -9.98 20.66 -11 21 C-11.71925996 13.51969639 -9.4882441 7.60652292 -6 1 C-4 0 -4 0 0 0 Z " fill="#5FA0A8" transform="translate(184,185)"/>
<path d="M0 0 C0.90105469 0.01804687 1.80210937 0.03609375 2.73046875 0.0546875 C3.41753906 0.07789063 4.10460937 0.10109375 4.8125 0.125 C5.1425 1.775 5.4725 3.425 5.8125 5.125 C2.6375906 7.0328584 0.70664789 7.2859041 -2.9375 6.75 C-3.73671875 6.63914062 -4.5359375 6.52828125 -5.359375 6.4140625 C-5.96265625 6.31867188 -6.5659375 6.22328125 -7.1875 6.125 C-7.5175 4.805 -7.8475 3.485 -8.1875 2.125 C-4.87379 -0.08414 -3.8428979 -0.09981553 0 0 Z " fill="#182754" transform="translate(166.1875,322.875)"/>
<path d="M0 0 C0.66 0 1.32 0 2 0 C0.82191948 3.3529984 -0.19406612 5.7552529 -3 8 C-9.42019108 10.14006369 -16.41504378 8.95781181 -23 8 C-23 7.67 -23 7.34 -23 7 C-22.40574219 6.89042969 -21.81148437 6.78085938 -21.19921875 6.66796875 C-9.73327063 5.14615094 -9.73327063 5.14615094 0 0 Z " fill="#6995A9" transform="translate(259,211)"/>
<path d="M0 0 C1.26328125 0.01804687 2.5265625 0.03609375 3.828125 0.0546875 C4.79234375 0.07789063 5.7565625 0.10109375 6.75 0.125 C6.75 0.455 6.75 0.785 6.75 1.125 C6.06292969 1.18558594 5.37585938 1.24617188 4.66796875 1.30859375 C3.31638672 1.43427734 3.31638672 1.43427734 1.9375 1.5625 C0.59751953 1.68431641 0.59751953 1.68431641 -0.76953125 1.80859375 C-3.37743559 2.05989767 -3.37743559 2.05989767 -6.25 3.125 C-5.92 4.445 -5.59 5.765 -5.25 7.125 C-2.28 7.125 0.69 7.125 3.75 7.125 C3.75 7.455 3.75 7.785 3.75 8.125 C2.75419922 8.27195312 2.75419922 8.27195312 1.73828125 8.421875 C-3.62285726 9.32974663 -7.27036413 10.14536413 -11.25 14.125 C-10.7520163 10.39012223 -10.37508244 8.31262365 -8.25 5.125 C-8.91 4.795 -9.57 4.465 -10.25 4.125 C-10.58 3.465 -10.91 2.805 -11.25 2.125 C-7.54583874 -0.25090142 -4.32015427 -0.08000286 0 0 Z " fill="#4C5A7E" transform="translate(164.25,321.875)"/>
<path d="M0 0 C1.72251754 4.0845326 0.07280563 7.36973696 -1.4375 11.25 C-1.68048828 11.8996875 -1.92347656 12.549375 -2.17382812 13.21875 C-2.77285994 14.81616817 -3.38514321 16.40860594 -4 18 C-4.33 17.34 -4.66 16.68 -5 16 C-6.32 16.33 -7.64 16.66 -9 17 C-7.50723624 11.60308488 -5.80304155 6.30094216 -4 1 C-3.67 1.66 -3.34 2.32 -3 3 C-2.01 3 -1.02 3 0 3 C0 2.01 0 1.02 0 0 Z " fill="#75B7BD" transform="translate(337,241)"/>
<path d="M0 0 C0.33 0.66 0.66 1.32 1 2 C0.01 2.66 -0.98 3.32 -2 4 C-2.36460453 6.66653905 -2.36460453 6.66653905 -2.1875 9.625 C-2.16042969 10.62789063 -2.13335937 11.63078125 -2.10546875 12.6640625 C-2.07066406 13.43492187 -2.03585938 14.20578125 -2 15 C-3.65 15 -5.3 15 -7 15 C-7.33 17.97 -7.66 20.94 -8 24 C-8.33 24 -8.66 24 -9 24 C-9.44891323 16.51811287 -9.65888902 10.19200585 -5 4 C-2.25 1.5 -2.25 1.5 0 0 Z " fill="#374772" transform="translate(152,325)"/>
<path d="M0 0 C0.33 0 0.66 0 1 0 C1.309375 1.11375 1.61875 2.2275 1.9375 3.375 C2.82326483 6.7945155 2.82326483 6.7945155 4 9 C3.01 9.33 2.02 9.66 1 10 C1.33 10.66 1.66 11.32 2 12 C1.34 12 0.68 12 0 12 C0 12.99 0 13.98 0 15 C0.721875 14.95875 1.44375 14.9175 2.1875 14.875 C5.20729369 15.00921305 7.26935729 15.75170619 10 17 C10 17.33 10 17.66 10 18 C8.58249437 17.88490339 7.16598831 17.75746342 5.75 17.625 C4.96109375 17.55539062 4.1721875 17.48578125 3.359375 17.4140625 C0.914123 16.98492887 -0.84836903 16.21399362 -3 15 C-3 14.34 -3 13.68 -3 13 C-3.66 13 -4.32 13 -5 13 C-6.0625 11.1875 -6.0625 11.1875 -7 9 C-6.67 8.01 -6.34 7.02 -6 6 C-5.34 6.66 -4.68 7.32 -4 8 C-3.01 8 -2.02 8 -1 8 C-0.67 5.36 -0.34 2.72 0 0 Z " fill="#546182" transform="translate(333,346)"/>
<path d="M0 0 C1.2065625 0.0309375 1.2065625 0.0309375 2.4375 0.0625 C-2.70535714 5.63392857 -2.70535714 5.63392857 -6.5625 6.0625 C-6.5625 6.7225 -6.5625 7.3825 -6.5625 8.0625 C-10.40072178 9.86872201 -13.32615622 10.58123597 -17.5625 10.0625 C-20.9375 8.0625 -20.9375 8.0625 -23.5625 6.0625 C-22.5725 5.4025 -21.5825 4.7425 -20.5625 4.0625 C-17.875 4.9375 -17.875 4.9375 -15.5625 6.0625 C-15.5625 6.7225 -15.5625 7.3825 -15.5625 8.0625 C-11.14727891 6.79275028 -11.14727891 6.79275028 -7.5625 4.0625 C-6.5725 4.0625 -5.5825 4.0625 -4.5625 4.0625 C-4.2325 3.0725 -3.9025 2.0825 -3.5625 1.0625 C-2.5625 0.0625 -2.5625 0.0625 0 0 Z " fill="#6D8B9F" transform="translate(260.5625,247.9375)"/>
<path d="M0 0 C0.33 1.65 0.66 3.3 1 5 C-0.19625 4.95875 -1.3925 4.9175 -2.625 4.875 C-6.43890056 4.88176224 -9.48322175 5.40907651 -13 7 C-13.99 8.485 -13.99 8.485 -15 10 C-15.66 10 -16.32 10 -17 10 C-15.87420679 6.05972376 -14.09215618 3.50137091 -10.86328125 0.9375 C-7.40373982 -0.80314978 -3.76533863 -0.37653386 0 0 Z " fill="#76AEB6" transform="translate(286,195)"/>
<path d="M0 0 C0.66 0.33 1.32 0.66 2 1 C1.01 1.680625 1.01 1.680625 0 2.375 C-0.99 3.179375 -0.99 3.179375 -2 4 C-2 4.66 -2 5.32 -2 6 C-1.34 6.33 -0.68 6.66 0 7 C-9.41002278 9.29612756 -9.41002278 9.29612756 -14 9 C-13.67 8.34 -13.34 7.68 -13 7 C-15.64 6.67 -18.28 6.34 -21 6 C-21 5.67 -21 5.34 -21 5 C-20.154375 4.89042969 -19.30875 4.78085937 -18.4375 4.66796875 C-10.72034544 3.61484763 -10.72034544 3.61484763 -3.3125 1.3125 C-1.6728125 0.6628125 -1.6728125 0.6628125 0 0 Z " fill="#1D395E" transform="translate(274,271)"/>
<path d="M0 0 C0.556875 0.226875 1.11375 0.45375 1.6875 0.6875 C-0.09991473 5.0070856 -2.53405545 6.77424469 -6.625 8.875 C-9.93678611 9.87623766 -12.87231114 9.82240937 -16.3125 9.6875 C-16.3125 9.3575 -16.3125 9.0275 -16.3125 8.6875 C-14.3325 8.6875 -12.3525 8.6875 -10.3125 8.6875 C-11.3025 7.3675 -12.2925 6.0475 -13.3125 4.6875 C-12.425625 4.419375 -11.53875 4.15125 -10.625 3.875 C-7.31624618 2.82913245 -7.31624618 2.82913245 -4.6875 1 C-2.3125 -0.3125 -2.3125 -0.3125 0 0 Z " fill="#5B939F" transform="translate(316.3125,220.3125)"/>
<path d="M0 0 C5.91492272 0.45224761 11.35199888 1.1582605 17 3 C16.67 4.32 16.34 5.64 16 7 C9.07 6.01 2.14 5.02 -5 4 C-5 3.67 -5 3.34 -5 3 C-4.04287109 2.90912109 -4.04287109 2.90912109 -3.06640625 2.81640625 C-1.82697266 2.69072266 -1.82697266 2.69072266 -0.5625 2.5625 C0.67306641 2.44068359 0.67306641 2.44068359 1.93359375 2.31640625 C3.98662025 2.21069185 3.98662025 2.21069185 5 1 C3.35 1 1.7 1 0 1 C0 0.67 0 0.34 0 0 Z " fill="#A3CFC5" transform="translate(261,133)"/>
<path d="M0 0 C0.66 0.33 1.32 0.66 2 1 C1.67 1.66 1.34 2.32 1 3 C2.32 3.66 3.64 4.32 5 5 C4.071875 5.4125 3.14375 5.825 2.1875 6.25 C-1.03671508 7.7320715 -1.03671508 7.7320715 -2.625 10.1875 C-3.07875 10.785625 -3.5325 11.38375 -4 12 C-5.32 12 -6.64 12 -8 12 C-7.92303847 8.76761586 -7.62561345 6.66772205 -5.375 4.265625 C-3.62229929 2.78148327 -1.84920638 1.36155666 0 0 Z " fill="#A3C696" transform="translate(221,225)"/>
<path d="M0 0 C5.42857143 -0.36190476 5.42857143 -0.36190476 7.875 1.1875 C9.34781139 3.56036279 9.22223194 5.25913944 9 8 C8.01 7.67 7.02 7.34 6 7 C6 6.34 6 5.68 6 5 C4.741875 5.144375 3.48375 5.28875 2.1875 5.4375 C1.12595703 5.55931641 1.12595703 5.55931641 0.04296875 5.68359375 C-2.19396393 5.97170735 -2.19396393 5.97170735 -5 7 C-5 5.68 -5 4.36 -5 3 C-3.35 2.67 -1.7 2.34 0 2 C0 1.34 0 0.68 0 0 Z " fill="#3A9E76" transform="translate(164,150)"/>
<path d="M0 0 C4.75 1.875 4.75 1.875 7 3 C7 3.66 7 4.32 7 5 C7.78375 5.2475 8.5675 5.495 9.375 5.75 C12.32317108 7.15389099 12.9024777 8.00675737 14 11 C7.86481766 10.63188906 5.14047282 9.3376382 1 5 C0.125 2.1875 0.125 2.1875 0 0 Z " fill="#518F98" transform="translate(191,286)"/>
<path d="M0 0 C2.9156164 3.54039134 5.50127818 7.1626772 8 11 C7.67 11.66 7.34 12.32 7 13 C6.34 13 5.68 13 5 13 C4.67 13.66 4.34 14.32 4 15 C2.80286983 13.21475351 1.61752721 11.4215972 0.4375 9.625 C-0.55443359 8.12839844 -0.55443359 8.12839844 -1.56640625 6.6015625 C-2.03949219 5.74304688 -2.51257813 4.88453125 -3 4 C-2.67 3.34 -2.34 2.68 -2 2 C-1.34 2.33 -0.68 2.66 0 3 C0 2.01 0 1.02 0 0 Z " fill="#67A1A9" transform="translate(172,259)"/>
<path d="M0 0 C6.6 0 13.2 0 20 0 C20 0.66 20 1.32 20 2 C17.65147472 3.17426264 16.26225935 3.11508173 13.6484375 3.09765625 C12.79765625 3.09443359 11.946875 3.09121094 11.0703125 3.08789062 C10.18085938 3.07951172 9.29140625 3.07113281 8.375 3.0625 C7.4778125 3.05798828 6.580625 3.05347656 5.65625 3.04882812 C3.43743352 3.03702591 1.21874982 3.02056155 -1 3 C-0.67 2.01 -0.34 1.02 0 0 Z " fill="#397084" transform="translate(226,215)"/>
<path d="M0 0 C1.32 0 2.64 0 4 0 C3.6999825 3.50020422 3.04266259 4.94904191 0.75 7.6875 C-1.83562327 9.86177411 -3.80636682 10.99628672 -7 12 C-7 11.01 -7 10.02 -7 9 C-6.01 9 -5.02 9 -4 9 C-4 8.34 -4 7.68 -4 7 C-4.66 6.67 -5.32 6.34 -6 6 C-4 4 -2 2 0 0 Z " fill="#ACCE99" transform="translate(314,207)"/>
<path d="M0 0 C0.33 0 0.66 0 1 0 C1.22295635 2.39527434 1.42874063 4.79001341 1.625 7.1875 C1.68945312 7.86103516 1.75390625 8.53457031 1.8203125 9.22851562 C2.14362111 13.37090718 1.89095265 16.28305109 0 20 C-0.99 20 -1.98 20 -3 20 C-2.67 15.05 -2.34 10.1 -2 5 C-1.34 5 -0.68 5 0 5 C0 3.35 0 1.7 0 0 Z " fill="#5BA4A8" transform="translate(337,224)"/>
<path d="M0 0 C1.32 0.33 2.64 0.66 4 1 C2.6062718 5.43458973 0.39417765 7.87378374 -3 11 C-3.99 10.67 -4.98 10.34 -6 10 C-5.49477778 5.62140745 -2.82172778 3.18348776 0 0 Z " fill="#437D8C" transform="translate(262,214)"/>
<path d="M0 0 C0.33 1.98 0.66 3.96 1 6 C-5.75 7.125 -5.75 7.125 -8 6 C-7.67 4.02 -7.34 2.04 -7 0 C-3.98968256 -0.93423645 -3.13349732 -1.04449911 0 0 Z " fill="#2B3E6B" transform="translate(280,290)"/>
<path d="M0 0 C-1.01694313 3.05082939 -1.72144212 3.90372675 -4 6 C-4.66 6.66 -5.32 7.32 -6 8 C-6.33 7.01 -6.66 6.02 -7 5 C-8.65 4.67 -10.3 4.34 -12 4 C-11.67 3.01 -11.34 2.02 -11 1 C-7.26562152 0.12132271 -3.83225427 -0.08912219 0 0 Z M-8 7 C-7.67 7.66 -7.34 8.32 -7 9 C-7.99 9.33 -8.98 9.66 -10 10 C-10.66 9.34 -11.32 8.68 -12 8 C-10.68 7.67 -9.36 7.34 -8 7 Z " fill="#3C4977" transform="translate(356,333)"/>
<path d="M0 0 C0.66 0.33 1.32 0.66 2 1 C2 3 2 5 2 7 C1.34 7 0.68 7 0 7 C-1.0448758 11.62730711 -1.51756279 16.28853878 -2 21 C-4.49118953 17.2632157 -4.2065226 15.25548181 -4.125 10.8125 C-4.10695312 9.54019531 -4.08890625 8.26789063 -4.0703125 6.95703125 C-4.04710937 5.98121094 -4.02390625 5.00539063 -4 4 C-2.68 3.34 -1.36 2.68 0 2 C0 1.34 0 0.68 0 0 Z " fill="#15244E" transform="translate(153,325)"/>
<path d="M0 0 C0.33 0.99 0.66 1.98 1 3 C2.32 3 3.64 3 5 3 C4.67 4.65 4.34 6.3 4 8 C1.03 8 -1.94 8 -5 8 C-5 6.68 -5 5.36 -5 4 C-4.34 4 -3.68 4 -3 4 C-3 3.34 -3 2.68 -3 2 C-2.01 2 -1.02 2 0 2 C0 1.34 0 0.68 0 0 Z " fill="#344467" transform="translate(258,355)"/>
<path d="M0 0 C0 1.8542837 -0.01728701 3.70876759 -0.0625 5.5625 C-0.17218753 8.00907507 -0.17218753 8.00907507 1 10 C-2.47325181 11.1577506 -5.36067448 11.06866652 -9 11 C-8.34 10.01 -7.68 9.02 -7 8 C-6.67 7.01 -6.34 6.02 -6 5 C-6.99 4.34 -7.98 3.68 -9 3 C-7.88625 2.87625 -6.7725 2.7525 -5.625 2.625 C-1.96896323 2.3534187 -1.96896323 2.3534187 0 0 Z " fill="#3F4C73" transform="translate(203,353)"/>
<path d="M0 0 C1.81120302 2.71680452 3.33877995 5.4350723 4.875 8.3125 C7.06955699 12.36812737 9.3500839 16.22896555 12 20 C8.21432281 19.1304607 6.42601476 18.58555115 4.1015625 15.390625 C3.61429688 14.35421875 3.12703125 13.3178125 2.625 12.25 C2.12226563 11.22390625 1.61953125 10.1978125 1.1015625 9.140625 C-0.04422872 5.87390111 -0.21584357 3.43294065 0 0 Z " fill="#4C6E85" transform="translate(198,239)"/>
<path d="M0 0 C0 2.97 0 5.94 0 9 C-0.66 9 -1.32 9 -2 9 C-4 7 -4 7 -5 4 C-5.99 3.67 -6.98 3.34 -8 3 C-7.67 2.01 -7.34 1.02 -7 0 C-4 -1 -4 -1 0 0 Z " fill="#2C3960" transform="translate(303,342)"/>
<path d="M0 0 C1.19367188 -0.00515625 2.38734375 -0.0103125 3.6171875 -0.015625 C7.10730337 0.24865994 9.87153337 0.99637065 13.125 2.25 C13.125 3.24 13.125 4.23 13.125 5.25 C11.805 5.25 10.485 5.25 9.125 5.25 C8.795 4.59 8.465 3.93 8.125 3.25 C1.855 2.92 -4.415 2.59 -10.875 2.25 C-6.65184897 0.13842448 -4.62770514 -0.01990411 0 0 Z " fill="#A6C79D" transform="translate(233.875,222.75)"/>
<path d="M0 0 C-7.65257723 1.37559416 -15.24548194 2.41993763 -23 3 C-23 2.01 -23 1.02 -23 0 C-19.91886238 -0.39476516 -16.83506496 -0.76231457 -13.75 -1.125 C-12.87730469 -1.23714844 -12.00460938 -1.34929687 -11.10546875 -1.46484375 C-9.83896484 -1.60986328 -9.83896484 -1.60986328 -8.546875 -1.7578125 C-7.38430176 -1.89920654 -7.38430176 -1.89920654 -6.19824219 -2.04345703 C-3.64453711 -1.99297286 -2.17766015 -1.28837662 0 0 Z " fill="#8DC8BF" transform="translate(258,166)"/>
<path d="M0 0 C3.96 1.98 7.92 3.96 12 6 C12 6.33 12 6.66 12 7 C11.05125 6.979375 10.1025 6.95875 9.125 6.9375 C6.09333717 6.77448174 6.09333717 6.77448174 4 8 C1.8359375 7.00390625 1.8359375 7.00390625 -0.625 5.5625 C-1.44226563 5.08941406 -2.25953125 4.61632812 -3.1015625 4.12890625 C-3.72804687 3.75636719 -4.35453125 3.38382812 -5 3 C-4.360625 2.87625 -3.72125 2.7525 -3.0625 2.625 C-2.0415625 2.315625 -2.0415625 2.315625 -1 2 C-0.67 1.34 -0.34 0.68 0 0 Z " fill="#5A96A0" transform="translate(204,294)"/>
<path d="M0 0 C0.33 0 0.66 0 1 0 C1.10824843 1.6026782 1.18570645 3.20745748 1.25 4.8125 C1.29640625 5.70582031 1.3428125 6.59914062 1.390625 7.51953125 C1 10 1 10 -0.828125 11.88671875 C-1.54484375 12.25410156 -2.2615625 12.62148437 -3 13 C-3.99 12.67 -4.98 12.34 -6 12 C-5.34 12 -4.68 12 -4 12 C-4 11.01 -4 10.02 -4 9 C-4.66 8.34 -5.32 7.68 -6 7 C-5.34 6.01 -4.68 5.02 -4 4 C-2.68 4 -1.36 4 0 4 C0 2.68 0 1.36 0 0 Z " fill="#76C3AF" transform="translate(173,154)"/>
<path d="M0 0 C2.5 -0.5 2.5 -0.5 6 0 C8.98079945 2.38784472 11.55688701 5.06702425 14 8 C14 8.33 14 8.66 14 9 C11.8125 9.375 11.8125 9.375 9 9 C7.28859531 7.03814584 5.62126675 5.03697617 4 3 C1.83468832 2.05563651 1.83468832 2.05563651 0 2 C0 1.34 0 0.68 0 0 Z " fill="#304A6A" transform="translate(289,262)"/>
<path d="M0 0 C2.375 -0.125 2.375 -0.125 5 0 C7 2 7 2 7 6 C6.34 6 5.68 6 5 6 C4.67 6.66 4.34 7.32 4 8 C3.01 8 2.02 8 1 8 C-0.35439668 5.29120665 -0.06501451 2.99066732 0 0 Z " fill="#192853" transform="translate(250,348)"/>
<path d="M0 0 C0.33 1.32 0.66 2.64 1 4 C-1.31 5.98 -3.62 7.96 -6 10 C-6.66 9.67 -7.32 9.34 -8 9 C-7.67 7.35 -7.34 5.7 -7 4 C-6.34 4 -5.68 4 -5 4 C-5 3.34 -5 2.68 -5 2 C-3.35 1.34 -1.7 0.68 0 0 Z " fill="#579A9F" transform="translate(316,279)"/>
<path d="M0 0 C0.33 0.99 0.66 1.98 1 3 C0.34 3 -0.32 3 -1 3 C-1.93423645 6.01031744 -2.04449911 6.86650268 -1 10 C-1.99 10 -2.98 10 -4 10 C-4.33 10.99 -4.66 11.98 -5 13 C-5 12.34 -5 11.68 -5 11 C-5.99 10.67 -6.98 10.34 -8 10 C-6.49946106 6.88349604 -4.93818042 3.86850702 -3 1 C-2.01 0.67 -1.02 0.34 0 0 Z " fill="#73AAB7" transform="translate(271,204)"/>
<path d="M0 0 C1.32 0.33 2.64 0.66 4 1 C3.67 2.32 3.34 3.64 3 5 C2.34 4.67 1.68 4.34 1 4 C0.34 7.96 -0.32 11.92 -1 16 C-1.66 15.67 -2.32 15.34 -3 15 C-3.08142927 13.2507786 -3.13938541 11.50045458 -3.1875 9.75 C-3.22230469 8.77546875 -3.25710938 7.8009375 -3.29296875 6.796875 C-2.96075202 3.62531258 -2.11327721 2.32959693 0 0 Z " fill="#364567" transform="translate(329,337)"/>
<path d="M0 0 C1.32 0 2.64 0 4 0 C4 1.65 4 3.3 4 5 C3.34 5 2.68 5 2 5 C1.87625 5.598125 1.7525 6.19625 1.625 6.8125 C1 9 1 9 -1 12 C-1 10.35 -1 8.7 -1 7 C-1.66 7 -2.32 7 -3 7 C-1.125 2.25 -1.125 2.25 0 0 Z " fill="#6FAAA8" transform="translate(172,176)"/>
<path d="M0 0 C0.66 0.33 1.32 0.66 2 1 C0.8553125 2.299375 0.8553125 2.299375 -0.3125 3.625 C-2.75220073 6.53600655 -4.42998277 9.52943561 -6 13 C-6.99 13 -7.98 13 -9 13 C-9 12.34 -9 11.68 -9 11 C-8.34 11 -7.68 11 -7 11 C-7.20625 10.071875 -7.4125 9.14375 -7.625 8.1875 C-8 5 -8 5 -6 2 C-5.34 2.33 -4.68 2.66 -4 3 C-4 3.66 -4 4.32 -4 5 C-2.68 3.35 -1.36 1.7 0 0 Z M-11 14 C-10.67 14.66 -10.34 15.32 -10 16 C-10.66 15.67 -11.32 15.34 -12 15 C-11.67 14.67 -11.34 14.34 -11 14 Z " fill="#61B8B1" transform="translate(196,166)"/>
<path d="M0 0 C-0.54723683 3.37462715 -1.0549 5.08235 -3 8 C-3.38499891 9.65549531 -3.72793135 11.3222433 -4 13 C-4.66 13 -5.32 13 -6 13 C-6.10824843 11.3973218 -6.18570645 9.79254252 -6.25 8.1875 C-6.29640625 7.29417969 -6.3428125 6.40085938 -6.390625 5.48046875 C-6 3 -6 3 -4.109375 1.17578125 C-2 0 -2 0 0 0 Z " fill="#265A73" transform="translate(241,236)"/>
<path d="M0 0 C0.33 0 0.66 0 1 0 C1 5.94 1 11.88 1 18 C-0.98 18 -2.96 18 -5 18 C-5 16.35 -5 14.7 -5 13 C-4.01 14.485 -4.01 14.485 -3 16 C-0.98518266 13.98518266 -1.2785973 10.20923137 -0.9375 7.4375 C-0.84662109 6.72658203 -0.75574219 6.01566406 -0.66210938 5.28320312 C-0.43760497 3.52261597 -0.21831603 1.76136522 0 0 Z " fill="#17234A" transform="translate(313,344)"/>
<path d="M0 0 C0.33 0 0.66 0 1 0 C1 9.24 1 18.48 1 28 C-0.98 28 -2.96 28 -5 28 C-4.505 26.515 -4.505 26.515 -4 25 C-3.01 25.33 -2.02 25.66 -1 26 C-0.67 17.42 -0.34 8.84 0 0 Z " fill="#162448" transform="translate(355,334)"/>
<path d="M0 0 C2.875 0.75 2.875 0.75 6 2 C7.125 4 7.125 4 8 6 C10.0335948 7.26804566 10.0335948 7.26804566 12 8 C4.76190476 8.36190476 4.76190476 8.36190476 1.5 6.8125 C0 5 0 5 -0.25 2.3125 C-0.1675 1.549375 -0.085 0.78625 0 0 Z " fill="#253562" transform="translate(217,289)"/>
<path d="M0 0 C1.875 0.3125 1.875 0.3125 4 1 C4.66 1.99 5.32 2.98 6 4 C6.804375 3.979375 7.60875 3.95875 8.4375 3.9375 C9.7059375 3.9684375 9.7059375 3.9684375 11 4 C12.8125 6 12.8125 6 14 8 C13.01 8.495 13.01 8.495 12 9 C10.26379633 8.27931168 8.52932088 7.55252881 6.8203125 6.76953125 C4.58953565 5.82647752 2.38919922 5.36199988 0 5 C0 3.35 0 1.7 0 0 Z " fill="#1A2F57" transform="translate(224,271)"/>
<path d="M0 0 C1.65 0 3.3 0 5 0 C2.62245212 4.49092377 -0.3606063 7.52235713 -4 11 C-4.66 10.67 -5.32 10.34 -6 10 C-5.67 8.68 -5.34 7.36 -5 6 C-4.01 6 -3.02 6 -2 6 C-2 5.01 -2 4.02 -2 3 C-1.34 3 -0.68 3 0 3 C0 2.01 0 1.02 0 0 Z " fill="#518D9E" transform="translate(273,233)"/>
<path d="M0 0 C-0.598125 0.165 -1.19625 0.33 -1.8125 0.5 C-4.81128194 2.55630761 -5.24578703 4.8289425 -6.2890625 8.22265625 C-7 10 -7 10 -9 11 C-10.125 3.25 -10.125 3.25 -9 1 C-5.99083491 -0.07470182 -3.17106439 -0.08808512 0 0 Z " fill="#267587" transform="translate(181,206)"/>
<path d="M0 0 C2.39591038 -0.02712351 4.79150957 -0.0468982 7.1875 -0.0625 C7.86103516 -0.07087891 8.53457031 -0.07925781 9.22851562 -0.08789062 C12.95434131 -0.10606538 16.3788042 0.10700608 20 1 C19.67 1.66 19.34 2.32 19 3 C12.2718373 3.22262303 6.46008837 2.95021536 0 1 C0 0.67 0 0.34 0 0 Z " fill="#8BC3B5" transform="translate(246,133)"/>
<path d="M0 0 C0.33 0.66 0.66 1.32 1 2 C1.66 2 2.32 2 3 2 C3 2.66 3 3.32 3 4 C4.32 4.33 5.64 4.66 7 5 C3.98968256 5.93423645 3.13349732 6.04449911 0 5 C-0.66 6.32 -1.32 7.64 -2 9 C-2.66 9 -3.32 9 -4 9 C-4 8.34 -4 7.68 -4 7 C-4.66 7 -5.32 7 -6 7 C-6.33 6.01 -6.66 5.02 -7 4 C-5.68 4.33 -4.36 4.66 -3 5 C-2.67 4.01 -2.34 3.02 -2 2 C-1.34 2 -0.68 2 0 2 C0 1.34 0 0.68 0 0 Z " fill="#415079" transform="translate(153,350)"/>
<path d="M0 0 C0.66 0 1.32 0 2 0 C1.835 1.051875 1.67 2.10375 1.5 3.1875 C1.10430322 6.20468796 0.90821029 8.97093972 1 12 C-0.875 11.75 -0.875 11.75 -3 11 C-4.25 8.9375 -4.25 8.9375 -5 7 C-4.01 6.67 -3.02 6.34 -2 6 C-0.77479736 2.99152582 -0.77479736 2.99152582 0 0 Z " fill="#1F2E58" transform="translate(264,345)"/>
<path d="M0 0 C0.309375 0.639375 0.61875 1.27875 0.9375 1.9375 C1.8345163 3.93610821 1.8345163 3.93610821 3 5 C3.04080783 6.99958364 3.04254356 9.00045254 3 11 C1.125 10.8125 1.125 10.8125 -1 10 C-2.52164099 7.10888212 -3 5.28176588 -3 2 C-2.34 2 -1.68 2 -1 2 C-0.67 1.34 -0.34 0.68 0 0 Z " fill="#5A96A0" transform="translate(169,251)"/>
<path d="M0 0 C-0.61016949 5.49152542 -0.61016949 5.49152542 -2.4375 7.875 C-4 9 -4 9 -6 9 C-6.36521739 3.52173913 -6.36521739 3.52173913 -4.6875 1.125 C-3 0 -3 0 0 0 Z " fill="#59A0A5" transform="translate(332,257)"/>
<path d="M0 0 C0.33 0 0.66 0 1 0 C1.99 5.94 2.98 11.88 4 18 C3.01 18.66 2.02 19.32 1 20 C-1.21452021 15.64703089 -1.07786638 11.91995366 -0.625 7.1875 C-0.56828125 6.49462891 -0.5115625 5.80175781 -0.453125 5.08789062 C-0.31269396 3.39101554 -0.15780593 1.69534752 0 0 Z " fill="#295F74" transform="translate(194,220)"/>
<path d="M0 0 C6.27 0 12.54 0 19 0 C19 0.33 19 0.66 19 1 C14.545 1.495 14.545 1.495 10 2 C10.99 2.66 11.98 3.32 13 4 C11.741875 4.020625 10.48375 4.04125 9.1875 4.0625 C8.47980469 4.07410156 7.77210938 4.08570313 7.04296875 4.09765625 C5 4 5 4 2 3 C2 2.34 2 1.68 2 1 C1.34 0.67 0.68 0.34 0 0 Z " fill="#AEE1D6" transform="translate(241,132)"/>
<path d="M0 0 C2.26185454 2.26185454 3.03921617 3.96983561 4 7 C3.67 7.99 3.34 8.98 3 10 C1.35 9.67 -0.3 9.34 -2 9 C-2 10.65 -2 12.3 -2 14 C-2.66 13.67 -3.32 13.34 -4 13 C-4 11.35 -4 9.7 -4 8 C-2.68 7.67 -1.36 7.34 0 7 C0 4.69 0 2.38 0 0 Z " fill="#445579" transform="translate(252,339)"/>
<path d="M0 0 C1.134375 0.020625 2.26875 0.04125 3.4375 0.0625 C2.65375 0.825625 1.87 1.58875 1.0625 2.375 C-1.63507717 4.97141805 -1.63507717 4.97141805 -3.5625 8.0625 C-4.86768475 9.09897024 -6.19711347 10.10672943 -7.5625 11.0625 C-7.0872412 9.41553396 -6.60718109 7.76995272 -6.125 6.125 C-5.85816406 5.20847656 -5.59132813 4.29195313 -5.31640625 3.34765625 C-4.11553837 -0.29228007 -4.12005153 0.07228161 0 0 Z " fill="#626D88" transform="translate(268.5625,332.9375)"/>
<path d="M0 0 C1.32 0 2.64 0 4 0 C4 0.99 4 1.98 4 3 C3.38125 3.0825 2.7625 3.165 2.125 3.25 C-0.15723303 3.78648121 -0.15723303 3.78648121 -1 5.875 C-1.33 6.57625 -1.66 7.2775 -2 8 C-4.125 9.75 -4.125 9.75 -6 11 C-5.34 8.69 -4.68 6.38 -4 4 C-3.34 4 -2.68 4 -2 4 C-2 3.34 -2 2.68 -2 2 C-1.34 2 -0.68 2 0 2 C0 1.34 0 0.68 0 0 Z " fill="#5EABA1" transform="translate(196,162)"/>
<path d="M0 0 C-0.33 0.99 -0.66 1.98 -1 3 C-2.65 3 -4.3 3 -6 3 C-6 3.66 -6 4.32 -6 5 C-7.45463481 5.38909985 -8.91391207 5.76088029 -10.375 6.125 C-11.18710938 6.33382812 -11.99921875 6.54265625 -12.8359375 6.7578125 C-13.55007812 6.83773437 -14.26421875 6.91765625 -15 7 C-15.66 6.34 -16.32 5.68 -17 5 C-15.43979133 4.34865075 -13.87671421 3.70417036 -12.3125 3.0625 C-11.44238281 2.70285156 -10.57226562 2.34320313 -9.67578125 1.97265625 C-6.46645344 0.80605388 -3.42536068 0 0 0 Z " fill="#78BBA6" transform="translate(233,144)"/>
<path d="M0 0 C1.134375 0.020625 2.26875 0.04125 3.4375 0.0625 C3.1075 1.7125 2.7775 3.3625 2.4375 5.0625 C0.4575 5.0625 -1.5225 5.0625 -3.5625 5.0625 C-4.125 3.125 -4.125 3.125 -4.5625 1.0625 C-3.5625 0.0625 -3.5625 0.0625 0 0 Z " fill="#1E2A4F" transform="translate(246.5625,332.9375)"/>
<path d="M0 0 C3.3 0 6.6 0 10 0 C9.67 1.32 9.34 2.64 9 4 C9.33 4.66 9.66 5.32 10 6 C4.48876404 5.38764045 4.48876404 5.38764045 2.1875 3.5625 C1 2 1 2 0 0 Z " fill="#182450" transform="translate(283,334)"/>
<path d="M0 0 C6.93 0 13.86 0 21 0 C20.67 1.32 20.34 2.64 20 4 C18.35 4 16.7 4 15 4 C14.67 3.34 14.34 2.68 14 2 C10.72444392 1.52998967 10.72444392 1.52998967 6.9375 1.375 C5.00197266 1.26285156 5.00197266 1.26285156 3.02734375 1.1484375 C1.52880859 1.07496094 1.52880859 1.07496094 0 1 C0 0.67 0 0.34 0 0 Z " fill="#79B1BD" transform="translate(243,307)"/>
<path d="M0 0 C0.66 0.33 1.32 0.66 2 1 C1.67 1.66 1.34 2.32 1 3 C1.99 3.33 2.98 3.66 4 4 C2.35 5.65 0.7 7.3 -1 9 C-3.2477975 6.94766315 -4.0022242 5.99332739 -5 3 C-2.625 1.4375 -2.625 1.4375 0 0 Z " fill="#1C3D6A" transform="translate(276,271)"/>
<path d="M0 0 C0.99 0 1.98 0 3 0 C2.8864371 1.64666203 2.75882619 3.29236082 2.625 4.9375 C2.55539063 5.85402344 2.48578125 6.77054688 2.4140625 7.71484375 C2.27742187 8.46894531 2.14078125 9.22304687 2 10 C1.01 10.495 1.01 10.495 0 11 C-0.66 10.34 -1.32 9.68 -2 9 C-1.66083005 5.81180248 -1.01406317 3.04218951 0 0 Z " fill="#63AEAE" transform="translate(168,183)"/>
<path d="M0 0 C2.77042109 2.77042109 2.39796106 4.76533805 2.625 8.625 C2.69976562 9.81351563 2.77453125 11.00203125 2.8515625 12.2265625 C2.92503906 13.59941406 2.92503906 13.59941406 3 15 C2.01 15 1.02 15 0 15 C0 10.05 0 5.1 0 0 Z " fill="#2D7D82" transform="translate(161,219)"/>
<path d="M0 0 C0.66 0.33 1.32 0.66 2 1 C1.67 1.99 1.34 2.98 1 4 C0.65179959 5.66362417 0.31595508 7.32995171 0 9 C-1.65 9 -3.3 9 -5 9 C-5.33 7.35 -5.66 5.7 -6 4 C-4.35 4 -2.7 4 -1 4 C-0.67 2.68 -0.34 1.36 0 0 Z " fill="#3D4A6F" transform="translate(250,334)"/>
<path d="M0 0 C0.60585937 0.20496094 1.21171875 0.40992188 1.8359375 0.62109375 C7.90341521 2.5720212 13.64303124 3.6077615 20 4 C20 4.33 20 4.66 20 5 C17.03 5 14.06 5 11 5 C10.67 5.66 10.34 6.32 10 7 C9.01 6.34 8.02 5.68 7 5 C7 4.34 7 3.68 7 3 C5.35 3.33 3.7 3.66 2 4 C1.34 2.68 0.68 1.36 0 0 Z " fill="#4D5D7A" transform="translate(228,272)"/>
<path d="M0 0 C-1.32 0.33 -2.64 0.66 -4 1 C-4 1.66 -4 2.32 -4 3 C-5.65 3.33 -7.3 3.66 -9 4 C-8.979375 4.94875 -8.95875 5.8975 -8.9375 6.875 C-9 10 -9 10 -10 12 C-10.66 12 -11.32 12 -12 12 C-11.25 5.375 -11.25 5.375 -9 2 C-5.95092353 0.00232921 -3.60302803 -0.20016822 0 0 Z " fill="#7CB8A4" transform="translate(168,149)"/>
<path d="M0 0 C1.26328125 0.01804687 2.5265625 0.03609375 3.828125 0.0546875 C4.79234375 0.07789063 5.7565625 0.10109375 6.75 0.125 C6.75 0.455 6.75 0.785 6.75 1.125 C6.07453125 1.16238281 5.3990625 1.19976562 4.703125 1.23828125 C3.81109375 1.30402344 2.9190625 1.36976563 2 1.4375 C1.11828125 1.49550781 0.2365625 1.55351562 -0.671875 1.61328125 C-3.3369744 1.94898141 -3.3369744 1.94898141 -5.390625 3.73046875 C-6.00421875 4.19066406 -6.6178125 4.65085937 -7.25 5.125 C-8.24 4.795 -9.23 4.465 -10.25 4.125 C-10.58 3.465 -10.91 2.805 -11.25 2.125 C-7.54583874 -0.25090142 -4.32015427 -0.08000286 0 0 Z " fill="#5B6788" transform="translate(164.25,321.875)"/>
<path d="M0 0 C1.98 0 3.96 0 6 0 C6.33 0.99 6.66 1.98 7 3 C6.01 4.485 6.01 4.485 5 6 C3.35 5.67 1.7 5.34 0 5 C0 3.35 0 1.7 0 0 Z " fill="#192751" transform="translate(232,324)"/>
<path d="M0 0 C-5.14285714 5.57142857 -5.14285714 5.57142857 -9 6 C-9.33 4.68 -9.66 3.36 -10 2 C-3.375 -1.125 -3.375 -1.125 0 0 Z " fill="#294466" transform="translate(286,268)"/>
<path d="M0 0 C0.99 0.33 1.98 0.66 3 1 C3 2.65 3 4.3 3 6 C2.34 6 1.68 6 1 6 C0.71125 6.639375 0.4225 7.27875 0.125 7.9375 C-1 10 -1 10 -3 11 C-2.69078116 9.54096742 -2.37751201 8.08279278 -2.0625 6.625 C-1.88847656 5.81289062 -1.71445312 5.00078125 -1.53515625 4.1640625 C-1 2 -1 2 0 0 Z " fill="#3A8792" transform="translate(281,222)"/>
<path d="M0 0 C1.11346788 2.80033839 1.03510273 3.90143703 0.00390625 6.796875 C-0.47175781 7.77140625 -0.94742187 8.7459375 -1.4375 9.75 C-1.91058594 10.73484375 -2.38367188 11.7196875 -2.87109375 12.734375 C-3.24363281 13.48203125 -3.61617188 14.2296875 -4 15 C-4.66 14.67 -5.32 14.34 -6 14 C-5.67 12.35 -5.34 10.7 -5 9 C-4.01 8.67 -3.02 8.34 -2 8 C-2.33 6.35 -2.66 4.7 -3 3 C-2.01 3 -1.02 3 0 3 C0 2.01 0 1.02 0 0 Z " fill="#485877" transform="translate(270,338)"/>
<path d="M0 0 C1.4540625 0.0309375 1.4540625 0.0309375 2.9375 0.0625 C2.9375 0.7225 2.9375 1.3825 2.9375 2.0625 C1.6175 2.0625 0.2975 2.0625 -1.0625 2.0625 C-2.58356634 5.10463267 -2.43679338 8.34297572 -2.625 11.6875 C-2.66818359 12.39390625 -2.71136719 13.1003125 -2.75585938 13.828125 C-2.86194751 15.57268537 -2.96272889 17.31756697 -3.0625 19.0625 C-3.3925 19.0625 -3.7225 19.0625 -4.0625 19.0625 C-4.08933987 16.08327407 -4.10926037 13.10428705 -4.125 10.125 C-4.13337891 9.27486328 -4.14175781 8.42472656 -4.15039062 7.54882812 C-4.15361328 6.73994141 -4.15683594 5.93105469 -4.16015625 5.09765625 C-4.16539307 4.3487915 -4.17062988 3.59992676 -4.17602539 2.82836914 C-3.97442503 -0.30749202 -3.18111996 0.06492082 0 0 Z " fill="#9499A4" transform="translate(310.0625,332.9375)"/>
<path d="M0 0 C10.15317287 -0.63019694 10.15317287 -0.63019694 13.6875 2 C14.120625 2.66 14.55375 3.32 15 4 C12 6 12 6 9.3125 5.625 C8.549375 5.41875 7.78625 5.2125 7 5 C7.99 4.67 8.98 4.34 10 4 C10 3.01 10 2.02 10 1 C6.7 1 3.4 1 0 1 C0 0.67 0 0.34 0 0 Z " fill="#485777" transform="translate(283,333)"/>
<path d="M0 0 C-2.64 2.64 -5.28 5.28 -8 8 C-8.66 7.67 -9.32 7.34 -10 7 C-8.79618552 4.50638429 -7.54571278 2.31856917 -6 0 C-3 -1 -3 -1 0 0 Z " fill="#94CEC7" transform="translate(304,173)"/>
<path d="M0 0 C5.75 -0.125 5.75 -0.125 8 1 C8 3.31 8 5.62 8 8 C7.34 8 6.68 8 6 8 C5.34 7.01 4.68 6.02 4 5 C3.34 4.34 2.68 3.68 2 3 C1.34 2.01 0.68 1.02 0 0 Z " fill="#192754" transform="translate(197,334)"/>
<path d="M0 0 C1.32 1.32 2.64 2.64 4 4 C3.34 4 2.68 4 2 4 C1.67 4.66 1.34 5.32 1 6 C-0.875 6.75 -0.875 6.75 -3 7 C-3.99 6.34 -4.98 5.68 -6 5 C-4.02 3.35 -2.04 1.7 0 0 Z " fill="#55869B" transform="translate(255,222)"/>
<path d="M0 0 C0.928125 0.20625 1.85625 0.4125 2.8125 0.625 C-3.55113636 5.625 -3.55113636 5.625 -8.1875 5.625 C-6.37307853 1.43787353 -4.89236161 -0.57557195 0 0 Z " fill="#88C3B5" transform="translate(221.1875,138.375)"/>
<path d="M0 0 C3.3 0.33 6.6 0.66 10 1 C9.01 1.495 9.01 1.495 8 2 C8 2.99 8 3.98 8 5 C3.71 4.67 -0.58 4.34 -5 4 C-5 3.67 -5 3.34 -5 3 C-4.04287109 2.90912109 -4.04287109 2.90912109 -3.06640625 2.81640625 C-1.82697266 2.69072266 -1.82697266 2.69072266 -0.5625 2.5625 C0.67306641 2.44068359 0.67306641 2.44068359 1.93359375 2.31640625 C3.98662025 2.21069185 3.98662025 2.21069185 5 1 C3.35 1 1.7 1 0 1 C0 0.67 0 0.34 0 0 Z " fill="#B7DCD5" transform="translate(261,133)"/>
<path d="M0 0 C0.598125 0.20625 1.19625 0.4125 1.8125 0.625 C1.1525 2.605 0.4925 4.585 -0.1875 6.625 C-2.6625 5.635 -2.6625 5.635 -5.1875 4.625 C-5.1875 3.635 -5.1875 2.645 -5.1875 1.625 C-2.1875 -0.375 -2.1875 -0.375 0 0 Z " fill="#182651" transform="translate(151.1875,349.375)"/>
<path d="M0 0 C-2.74395564 2.94721162 -5.38337216 5.19168608 -9 7 C-9.66 6.67 -10.32 6.34 -11 6 C-10.03628506 3.59071265 -9.34789837 2.23992991 -7.1875 0.75 C-4.67678635 -0.11081611 -2.63651351 -0.14647297 0 0 Z " fill="#4A5E80" transform="translate(297,286)"/>
<path d="M0 0 C1.18771723 3.42943519 0.80226223 5.37784675 -0.4375 8.75 C-0.72496094 9.54921875 -1.01242187 10.3484375 -1.30859375 11.171875 C-1.53675781 11.77515625 -1.76492188 12.3784375 -2 13 C-3 10 -3 10 -3 7 C-3.99 7.495 -3.99 7.495 -5 8 C-4.67 5.69 -4.34 3.38 -4 1 C-3.67 1.66 -3.34 2.32 -3 3 C-2.01 3 -1.02 3 0 3 C0 2.01 0 1.02 0 0 Z " fill="#81BCC0" transform="translate(337,241)"/>
<path d="M0 0 C-2.25 2.0625 -2.25 2.0625 -5 4 C-7.3125 3.75 -7.3125 3.75 -9 3 C-7.54728878 -0.75283733 -7.54728878 -0.75283733 -5.0625 -1.875 C-3 -2 -3 -2 0 0 Z " fill="#4E7986" transform="translate(223,219)"/>
<path d="M0 0 C3 2 3 2 3.51171875 4.3828125 C3.56972656 5.28773438 3.62773437 6.19265625 3.6875 7.125 C3.75324219 8.03507813 3.81898438 8.94515625 3.88671875 9.8828125 C3.92410156 10.58148438 3.96148437 11.28015625 4 12 C3.01 12.66 2.02 13.32 1 14 C0.67 9.38 0.34 4.76 0 0 Z " fill="#4E9E9E" transform="translate(336,209)"/>
<path d="M0 0 C0.33 0 0.66 0 1 0 C1.5326514 6.258654 -0.18150494 10.45108785 -3 16 C-3.33 16 -3.66 16 -4 16 C-4 14.35 -4 12.7 -4 11 C-3.34 11 -2.68 11 -2 11 C-2.185625 10.21625 -2.37125 9.4325 -2.5625 8.625 C-3 6 -3 6 -2 4 C-1.34 4 -0.68 4 0 4 C0 2.68 0 1.36 0 0 Z " fill="#8BB9BD" transform="translate(293,203)"/>
<path d="M0 0 C0 0.99 0 1.98 0 3 C-0.886875 2.979375 -1.77375 2.95875 -2.6875 2.9375 C-5.62169631 2.99286219 -8.15493696 3.3305734 -11 4 C-10.67 3.01 -10.34 2.02 -10 1 C-6.59437148 0.22157062 -3.49234244 -0.09978121 0 0 Z " fill="#172653" transform="translate(270,296)"/>
<path d="M0 0 C2.97 0 5.94 0 9 0 C9 0.66 9 1.32 9 2 C9.66 2.33 10.32 2.66 11 3 C7.37 3 3.74 3 0 3 C0 2.01 0 1.02 0 0 Z " fill="#13254C" transform="translate(239,277)"/>
<path d="M0 0 C1.32 0.66 2.64 1.32 4 2 C4 1.34 4 0.68 4 0 C5.32 0.66 6.64 1.32 8 2 C8 2.66 8 3.32 8 4 C5.36 4.33 2.72 4.66 0 5 C0 4.34 0 3.68 0 3 C-0.99 3.33 -1.98 3.66 -3 4 C-3 3.34 -3 2.68 -3 2 C-2.01 1.34 -1.02 0.68 0 0 Z " fill="#182855" transform="translate(333,335)"/>
<path d="M0 0 C0.66 0.33 1.32 0.66 2 1 C1.67 1.66 1.34 2.32 1 3 C1.99 3.33 2.98 3.66 4 4 C2.02 4.99 0.04 5.98 -2 7 C-2.66 6.34 -3.32 5.68 -4 5 C-4.66 4.67 -5.32 4.34 -6 4 C-4.02 2.68 -2.04 1.36 0 0 Z " fill="#70A9B0" transform="translate(300,291)"/>
<path d="M0 0 C1.65 0 3.3 0 5 0 C5 0.66 5 1.32 5 2 C5.66 2.33 6.32 2.66 7 3 C6.34 3 5.68 3 5 3 C5.33 4.32 5.66 5.64 6 7 C5.34 7 4.68 7 4 7 C4 6.34 4 5.68 4 5 C2.68 4.34 1.36 3.68 0 3 C0 2.01 0 1.02 0 0 Z " fill="#5B9FA9" transform="translate(186,283)"/>
<path d="M0 0 C1.2065625 0.0309375 1.2065625 0.0309375 2.4375 0.0625 C-0.68871626 3.45667765 -3.12791027 5.6687718 -7.5625 7.0625 C-8.2225 6.4025 -8.8825 5.7425 -9.5625 5.0625 C-7.9125 4.7325 -6.2625 4.4025 -4.5625 4.0625 C-4.2325 3.0725 -3.9025 2.0825 -3.5625 1.0625 C-2.5625 0.0625 -2.5625 0.0625 0 0 Z " fill="#45748D" transform="translate(260.5625,247.9375)"/>
<path d="M0 0 C2.0625 0.4375 2.0625 0.4375 4 1 C4 1.66 4 2.32 4 3 C4.66 3.33 5.32 3.66 6 4 C0.06 3.67 -5.88 3.34 -12 3 C-12 2.67 -12 2.34 -12 2 C-11.21753906 1.93941406 -10.43507812 1.87882813 -9.62890625 1.81640625 C-8.61699219 1.73261719 -7.60507813 1.64882812 -6.5625 1.5625 C-5.55316406 1.48128906 -4.54382813 1.40007812 -3.50390625 1.31640625 C-1.06359221 1.26788532 -1.06359221 1.26788532 0 0 Z " fill="#98BE80" transform="translate(239,225)"/>
<path d="M0 0 C3.63 0 7.26 0 11 0 C10.01 0.495 10.01 0.495 9 1 C9 1.66 9 2.32 9 3 C6.36 3 3.72 3 1 3 C0.67 2.01 0.34 1.02 0 0 Z " fill="#89BA71" transform="translate(294,217)"/>
<path d="M0 0 C0.66 0.99 1.32 1.98 2 3 C1.21625 3.433125 0.4325 3.86625 -0.375 4.3125 C-3.21698375 5.89220247 -3.21698375 5.89220247 -5 9 C-5.66 9 -6.32 9 -7 9 C-5.64978174 4.58110387 -3.73884332 2.65654657 0 0 Z " fill="#8AB2BC" transform="translate(276,196)"/>
<path d="M0 0 C6.625 -0.25 6.625 -0.25 10 2 C10 2.66 10 3.32 10 4 C6.53058454 3.54177532 3.32604951 3.10868317 0 2 C0 1.34 0 0.68 0 0 Z " fill="#74BAA3" transform="translate(277,149)"/>
<path d="M0 0 C-0.66 0 -1.32 0 -2 0 C-2 0.66 -2 1.32 -2 2 C-0.68 2.33 0.64 2.66 2 3 C-2.71599818 3.92470553 -5.67265609 4.22923777 -10 2 C-6.19832777 -0.53444815 -4.31588991 -1.33941411 0 0 Z " fill="#A1D4C9" transform="translate(229,136)"/>
<path d="M0 0 C1.32 0.33 2.64 0.66 4 1 C4 1.99 4 2.98 4 4 C-0.22222222 7 -0.22222222 7 -3 7 C-3 6.01 -3 5.02 -3 4 C-2.34 3.67 -1.68 3.34 -1 3 C-0.67 2.01 -0.34 1.02 0 0 Z " fill="#43516E" transform="translate(177,328)"/>
<path d="M0 0 C0.33 0 0.66 0 1 0 C1.33 4.29 1.66 8.58 2 13 C1.67 12.34 1.34 11.68 1 11 C-1.02463255 10.34786708 -1.02463255 10.34786708 -3 10 C-3 8.68 -3 7.36 -3 6 C-2.01 6 -1.02 6 0 6 C0 4.02 0 2.04 0 0 Z " fill="#64A6AF" transform="translate(164,228)"/>
<path d="M0 0 C-0.556875 0.268125 -1.11375 0.53625 -1.6875 0.8125 C-4.09305121 1.99530663 -4.09305121 1.99530663 -6.5625 3.6875 C-7.7690625 4.3371875 -7.7690625 4.3371875 -9 5 C-9.99 4.67 -10.98 4.34 -12 4 C-10.25457865 0.99399656 -9.42467941 0.11501734 -6 -0.8125 C-3 -1 -3 -1 0 0 Z " fill="#60B09B" transform="translate(224,150)"/>
<path d="M0 0 C0.66 0 1.32 0 2 0 C2 1.98 2 3.96 2 6 C0.02 6.99 -1.96 7.98 -4 9 C-4 6.69 -4 4.38 -4 2 C-3.67 3.32 -3.34 4.64 -3 6 C-2.34 6 -1.68 6 -1 6 C-0.67 4.02 -0.34 2.04 0 0 Z " fill="#172653" transform="translate(210,343)"/>
<path d="M0 0 C1.98 0 3.96 0 6 0 C5.67 0.99 5.34 1.98 5 3 C2.04215769 4.22393475 0.00272755 3.96516243 -3 3 C-2.34 3 -1.68 3 -1 3 C-0.67 2.01 -0.34 1.02 0 0 Z M1 4 C1.33 4.66 1.66 5.32 2 6 C1.34 5.67 0.68 5.34 0 5 C0.33 4.67 0.66 4.34 1 4 Z " fill="#525D7B" transform="translate(350,333)"/>
<path d="M0 0 C0.33 0.66 0.66 1.32 1 2 C0.01 2.66 -0.98 3.32 -2 4 C-2.25030977 6.58380177 -2.25030977 6.58380177 -2 9 C-2.99 8.67 -3.98 8.34 -5 8 C-5 8.66 -5 9.32 -5 10 C-5.66 10 -6.32 10 -7 10 C-6.42562214 6.12294944 -4.57271945 3.88456423 -2 1 C-1.34 0.67 -0.68 0.34 0 0 Z " fill="#455376" transform="translate(152,325)"/>
<path d="M0 0 C0 0.99 0 1.98 0 3 C-2.31 3.33 -4.62 3.66 -7 4 C-6.67 2.68 -6.34 1.36 -6 0 C-2.25 -1.125 -2.25 -1.125 0 0 Z " fill="#4C9299" transform="translate(298,296)"/>
<path d="M0 0 C0.33 0.99 0.66 1.98 1 3 C1.99 2.67 2.98 2.34 4 2 C3.67 2.99 3.34 3.98 3 5 C2.01 5 1.02 5 0 5 C-1.0260734 6.31337396 -2.02727325 7.64664105 -3 9 C-3.66 9 -4.32 9 -5 9 C-3.7508258 5.54074837 -2.32472205 2.85306797 0 0 Z " fill="#79B1B9" transform="translate(325,263)"/>
<path d="M0 0 C0.598125 0.20625 1.19625 0.4125 1.8125 0.625 C1.1525 1.945 0.4925 3.265 -0.1875 4.625 C-1.5075 4.625 -2.8275 4.625 -4.1875 4.625 C-4.5175 3.635 -4.8475 2.645 -5.1875 1.625 C-2.1875 -0.375 -2.1875 -0.375 0 0 Z " fill="#6B9EA7" transform="translate(316.1875,220.375)"/>
<path d="M0 0 C1.23556641 0.01740234 1.23556641 0.01740234 2.49609375 0.03515625 C3.32238281 0.04417969 4.14867187 0.05320313 5 0.0625 C5.63808594 0.07410156 6.27617187 0.08570313 6.93359375 0.09765625 C6.93359375 0.42765625 6.93359375 0.75765625 6.93359375 1.09765625 C4.29359375 1.09765625 1.65359375 1.09765625 -1.06640625 1.09765625 C-0.73640625 1.75765625 -0.40640625 2.41765625 -0.06640625 3.09765625 C1.82892717 3.56288688 1.82892717 3.56288688 3.99609375 3.72265625 C5.29546875 3.84640625 6.59484375 3.97015625 7.93359375 4.09765625 C7.93359375 4.42765625 7.93359375 4.75765625 7.93359375 5.09765625 C4.63359375 5.09765625 1.33359375 5.09765625 -2.06640625 5.09765625 C-2.39640625 3.77765625 -2.72640625 2.45765625 -3.06640625 1.09765625 C-2.06640625 0.09765625 -2.06640625 0.09765625 0 0 Z " fill="#B8D6AD" transform="translate(295.06640625,215.90234375)"/>
<path d="M0 0 C0.99 0 1.98 0 3 0 C1.515 6.435 1.515 6.435 0 13 C-0.33 13 -0.66 13 -1 13 C-1.02686553 11.02090602 -1.04633375 9.04171029 -1.0625 7.0625 C-1.07410156 5.96035156 -1.08570313 4.85820312 -1.09765625 3.72265625 C-1 1 -1 1 0 0 Z " fill="#207886" transform="translate(194,206)"/>
<path d="M0 0 C0.99 0 1.98 0 3 0 C3 2.31 3 4.62 3 7 C1.02 7.99 1.02 7.99 -1 9 C-0.67 6.03 -0.34 3.06 0 0 Z " fill="#469799" transform="translate(163,200)"/>
<path d="M0 0 C0.66 0.99 1.32 1.98 2 3 C0.35 5.97 -1.3 8.94 -3 12 C-3.33 12 -3.66 12 -4 12 C-4 9.69 -4 7.38 -4 5 C-3.34 5 -2.68 5 -2 5 C-2 4.34 -2 3.68 -2 3 C-1.34 3 -0.68 3 0 3 C0 2.01 0 1.02 0 0 Z " fill="#82BFBE" transform="translate(204,188)"/>
<path d="M0 0 C0.598125 0.495 1.19625 0.99 1.8125 1.5 C3.97029994 3.28276418 3.97029994 3.28276418 7 3 C7.66 4.32 8.32 5.64 9 7 C2.25 6.125 2.25 6.125 0 5 C0 3.35 0 1.7 0 0 Z " fill="#415070" transform="translate(218,357)"/>
<path d="M0 0 C0.99 0.495 0.99 0.495 2 1 C2 1.66 2 2.32 2 3 C2.66 3 3.32 3 4 3 C3.690625 3.598125 3.38125 4.19625 3.0625 4.8125 C1.89790296 7.08956772 1.89790296 7.08956772 1 10 C1.66 10.33 2.32 10.66 3 11 C2.01 11 1.02 11 0 11 C0 7.37 0 3.74 0 0 Z " fill="#4A577A" transform="translate(182,343)"/>
<path d="M0 0 C3.465 1.485 3.465 1.485 7 3 C6.67 4.32 6.34 5.64 6 7 C3.5625 6.3125 3.5625 6.3125 1 5 C0.1875 2.375 0.1875 2.375 0 0 Z " fill="#193360" transform="translate(201,280)"/>
<path d="M0 0 C0.66 1.32 1.32 2.64 2 4 C1.01 4.495 1.01 4.495 0 5 C-0.33 5.66 -0.66 6.32 -1 7 C-2.32 6.67 -3.64 6.34 -5 6 C-5 5.34 -5 4.68 -5 4 C-4.34 4 -3.68 4 -3 4 C-2.67 3.01 -2.34 2.02 -2 1 C-1.34 0.67 -0.68 0.34 0 0 Z " fill="#36889B" transform="translate(269,221)"/>
<path d="M0 0 C2 1 2 1 2.62109375 2.734375 C3.04706889 5.28144284 3.09646629 7.66856169 3.0625 10.25 C3.05347656 11.14203125 3.04445313 12.0340625 3.03515625 12.953125 C3.02355469 13.62859375 3.01195312 14.3040625 3 15 C2.67 15 2.34 15 2 15 C1.8046875 12.98177083 1.609375 10.96354167 1.4140625 8.9453125 C1.13625251 6.77331755 1.13625251 6.77331755 -1 5 C-0.625 2.375 -0.625 2.375 0 0 Z " fill="#8AC9C8" transform="translate(337,204)"/>
<path d="M0 0 C1.32 0 2.64 0 4 0 C3.1875 2.9375 3.1875 2.9375 2 6 C1.01 6.33 0.02 6.66 -1 7 C-1.04254356 5.00045254 -1.04080783 2.99958364 -1 1 C-0.67 0.67 -0.34 0.34 0 0 Z " fill="#48A2A4" transform="translate(180,185)"/>
<path d="M0 0 C1.5 1.1875 1.5 1.1875 3 3 C3.1875 5.6875 3.1875 5.6875 3 8 C2.34 7.67 1.68 7.34 1 7 C1 6.34 1 5.68 1 5 C-0.32 5 -1.64 5 -3 5 C-3.33 4.01 -3.66 3.02 -4 2 C-2.68 1.34 -1.36 0.68 0 0 Z " fill="#182651" transform="translate(187,341)"/>
<path d="M0 0 C1.50433594 0.01353516 1.50433594 0.01353516 3.0390625 0.02734375 C3.80992187 0.03894531 4.58078125 0.05054688 5.375 0.0625 C5.375 0.3925 5.375 0.7225 5.375 1.0625 C4.1684375 1.248125 4.1684375 1.248125 2.9375 1.4375 C2.091875 1.64375 1.24625 1.85 0.375 2.0625 C0.045 2.7225 -0.285 3.3825 -0.625 4.0625 C-1.615 4.0625 -2.605 4.0625 -3.625 4.0625 C-3.955 3.7325 -4.285 3.4025 -4.625 3.0625 C-5.615 2.4025 -6.605 1.7425 -7.625 1.0625 C-4.98041621 -0.25979189 -2.94738699 -0.03427194 0 0 Z " fill="#4D5B7B" transform="translate(197.625,332.9375)"/>
<path d="M0 0 C4.455 0.99 4.455 0.99 9 2 C9 2.99 9 3.98 9 5 C7.68428397 4.7452486 6.37239624 4.47065859 5.0625 4.1875 C4.33160156 4.03667969 3.60070312 3.88585937 2.84765625 3.73046875 C2.23792969 3.48941406 1.62820312 3.24835938 1 3 C0.67 2.01 0.34 1.02 0 0 Z " fill="#3D828B" transform="translate(209,300)"/>
<path d="M0 0 C1.98 0.66 3.96 1.32 6 2 C5.01 2.495 5.01 2.495 4 3 C4 3.99 4 4.98 4 6 C2.02 6.33 0.04 6.66 -2 7 C-2.33 6.34 -2.66 5.68 -3 5 C-1.68 4.34 -0.36 3.68 1 3 C0.67 2.01 0.34 1.02 0 0 Z " fill="#1C3A6A" transform="translate(293,280)"/>
<path d="M0 0 C-0.54226981 3.79588866 -2.20127563 5.47211993 -5 8 C-5.66 7.67 -6.32 7.34 -7 7 C-7 5 -7 5 -4.625 2.375 C-2 0 -2 0 0 0 Z " fill="#509699" transform="translate(327,267)"/>
<path d="M0 0 C0.66 0 1.32 0 2 0 C0.75023244 3.65316671 0.32901247 4.78065836 -3 7 C-3.33 6.34 -3.66 5.68 -4 5 C-6.02463255 4.34786708 -6.02463255 4.34786708 -8 4 C-6.865625 3.525625 -5.73125 3.05125 -4.5625 2.5625 C-1.24259834 1.36377917 -1.24259834 1.36377917 0 0 Z " fill="#86ADB4" transform="translate(259,211)"/>
<path d="M0 0 C3.96 0.33 7.92 0.66 12 1 C12 1.33 12 1.66 12 2 C10.37585622 2.19477739 8.75063577 2.38059458 7.125 2.5625 C6.22007812 2.66691406 5.31515625 2.77132813 4.3828125 2.87890625 C2 3 2 3 0 2 C0 1.34 0 0.68 0 0 Z " fill="#408A95" transform="translate(235,308)"/>
<path d="M0 0 C2.5 1.3125 2.5 1.3125 5 3 C5 3.99 5 4.98 5 6 C5.66 6.33 6.32 6.66 7 7 C4.07120629 6.37240135 1.63904371 5.41377341 -1 4 C-0.67 2.68 -0.34 1.36 0 0 Z " fill="#515E81" transform="translate(212,288)"/>
<path d="M0 0 C0.33 2.31 0.66 4.62 1 7 C0.01 6.34 -0.98 5.68 -2 5 C-2 4.34 -2 3.68 -2 3 C-3.9600281 1.36323743 -3.9600281 1.36323743 -6 0 C-3.50907189 -1.24546405 -2.58919267 -0.7767578 0 0 Z " fill="#56A589" transform="translate(172,151)"/>
<path d="M0 0 C0.33 1.32 0.66 2.64 1 4 C0.34 4 -0.32 4 -1 4 C-1 4.99 -1 5.98 -1 7 C-2.32 7 -3.64 7 -5 7 C-5 6.01 -5 5.02 -5 4 C-4.34 4 -3.68 4 -3 4 C-3 3.34 -3 2.68 -3 2 C-2.01 2 -1.02 2 0 2 C0 1.34 0 0.68 0 0 Z " fill="#1B2A56" transform="translate(258,355)"/>
<path d="M0 0 C0.66 0.66 1.32 1.32 2 2 C1.625 5.625 1.625 5.625 1 9 C0.01 8.67 -0.98 8.34 -2 8 C-2.20086443 4.28400809 -2.1519437 3.22791555 0 0 Z " fill="#17254E" transform="translate(204,353)"/>
<path d="M0 0 C1.98 0 3.96 0 6 0 C5.01 1.485 5.01 1.485 4 3 C3.54860541 5.0492094 3.54860541 5.0492094 3.375 7.1875 C3.25125 8.445625 3.1275 9.70375 3 11 C2.67 11 2.34 11 2 11 C2 8.36 2 5.72 2 3 C1.34 2.67 0.68 2.34 0 2 C0 1.34 0 0.68 0 0 Z " fill="#606F96" transform="translate(188,341)"/>
<path d="M0 0 C0.99 0.33 1.98 0.66 3 1 C3.6875 3.0625 3.6875 3.0625 4 5 C2.68 5 1.36 5 0 5 C0 3.35 0 1.7 0 0 Z M-4 1 C-3.01 1.33 -2.02 1.66 -1 2 C-1 2.66 -1 3.32 -1 4 C-1.99 3.67 -2.98 3.34 -4 3 C-4 2.34 -4 1.68 -4 1 Z " fill="#1A3065" transform="translate(277,289)"/>
<path d="M0 0 C2.5 1.8125 2.5 1.8125 5 4 C5 4.99 5 5.98 5 7 C4.34 7 3.68 7 3 7 C2.67 7.66 2.34 8.32 2 9 C0.50178941 5.62902617 0 3.79557881 0 0 Z " fill="#50657F" transform="translate(303,271)"/>
<path d="M0 0 C2.0625 0.4375 2.0625 0.4375 4 1 C4.33 2.32 4.66 3.64 5 5 C4.01 5.33 3.02 5.66 2 6 C2 5.34 2 4.68 2 4 C1.34 4 0.68 4 0 4 C-0.33 3.01 -0.66 2.02 -1 1 C-0.67 0.67 -0.34 0.34 0 0 Z " fill="#1C3959" transform="translate(212,263)"/>
<path d="M0 0 C0.33 1.32 0.66 2.64 1 4 C-1.64 4 -4.28 4 -7 4 C-5 1 -5 1 -2.375 0.3125 C-1.59125 0.209375 -0.8075 0.10625 0 0 Z " fill="#35687F" transform="translate(255,215)"/>
<path d="M0 0 C2.31 0.33 4.62 0.66 7 1 C7 1.33 7 1.66 7 2 C5.35 2 3.7 2 2 2 C2 2.66 2 3.32 2 4 C-2.455 4.495 -2.455 4.495 -7 5 C-7 4.34 -7 3.68 -7 3 C-4.69 3 -2.38 3 0 3 C0 2.01 0 1.02 0 0 Z " fill="#86CAB3" transform="translate(267,144)"/>
<path d="M0 0 C1.98 0.66 3.96 1.32 6 2 C4.75 3.5 4.75 3.5 3 5 C1.68 5 0.36 5 -1 5 C-0.67 3.35 -0.34 1.7 0 0 Z " fill="#2B395E" transform="translate(294,357)"/>
<path d="M0 0 C0.99 0 1.98 0 3 0 C4 3 4 3 3 6 C1.68 6 0.36 6 -1 6 C-1.042721 4.33388095 -1.04063832 2.66617115 -1 1 C-0.67 0.67 -0.34 0.34 0 0 Z " fill="#14234D" transform="translate(334,355)"/>
<path d="M0 0 C1.32 0 2.64 0 4 0 C4 0.99 4 1.98 4 3 C3.01 3.495 3.01 3.495 2 4 C2 4.99 2 5.98 2 7 C1.01 7.33 0.02 7.66 -1 8 C-1.33 7.01 -1.66 6.02 -2 5 C-1.34 5 -0.68 5 0 5 C0 3.35 0 1.7 0 0 Z " fill="#293860" transform="translate(206,354)"/>
<path d="M0 0 C0.99 0 1.98 0 3 0 C2.67 1.65 2.34 3.3 2 5 C0.68 5 -0.64 5 -2 5 C-1.125 1.125 -1.125 1.125 0 0 Z " fill="#1B305F" transform="translate(284,288)"/>
<path d="M0 0 C3.96 0 7.92 0 12 0 C12.33 0.66 12.66 1.32 13 2 C11.02 2.66 9.04 3.32 7 4 C7.33 3.34 7.66 2.68 8 2 C5.36 1.67 2.72 1.34 0 1 C0 0.67 0 0.34 0 0 Z " fill="#405070" transform="translate(253,276)"/>
<path d="M0 0 C2.97 0 5.94 0 9 0 C8.01 1.485 8.01 1.485 7 3 C3.375 3.1875 3.375 3.1875 0 3 C0 2.01 0 1.02 0 0 Z " fill="#11234A" transform="translate(253,277)"/>
<path d="M0 0 C1.32 0.33 2.64 0.66 4 1 C4 1.66 4 2.32 4 3 C1.38058783 4.74627478 -0.03824877 5.38722388 -3 6 C-3 4.68 -3 3.36 -3 2 C-2.01 2 -1.02 2 0 2 C0 1.34 0 0.68 0 0 Z " fill="#1D5A7A" transform="translate(252,249)"/>
<path d="M0 0 C2.475 0.495 2.475 0.495 5 1 C4.67 2.65 4.34 4.3 4 6 C2.68 6 1.36 6 0 6 C0 4 0 2 0 0 Z " fill="#17657E" transform="translate(259,242)"/>
<path d="M0 0 C2.31 0 4.62 0 7 0 C7 0.33 7 0.66 7 1 C5.35 1.33 3.7 1.66 2 2 C2 2.66 2 3.32 2 4 C2.99 4.33 3.98 4.66 5 5 C2.69 4.67 0.38 4.34 -2 4 C-1.34 2.68 -0.68 1.36 0 0 Z " fill="#78A6B4" transform="translate(287,225)"/>
<path d="M0 0 C1.32 0 2.64 0 4 0 C3.25 4.75 3.25 4.75 1 7 C1 5.68 1 4.36 1 3 C0.34 3 -0.32 3 -1 3 C-0.67 2.01 -0.34 1.02 0 0 Z " fill="#B6CDAE" transform="translate(314,207)"/>
<path d="M0 0 C0.66 0 1.32 0 2 0 C2.33 1.65 2.66 3.3 3 5 C2.360625 5.12375 1.72125 5.2475 1.0625 5.375 C0.0415625 5.684375 0.0415625 5.684375 -1 6 C-1.33 6.66 -1.66 7.32 -2 8 C-2.20086443 4.28400809 -2.1519437 3.22791555 0 0 Z " fill="#59B1AD" transform="translate(203,185)"/>
<path d="M0 0 C1.5 1.375 1.5 1.375 3 3 C3 3.66 3 4.32 3 5 C1 6.625 1 6.625 -1 8 C-1.66 6.35 -2.32 4.7 -3 3 C-2.01 2.01 -1.02 1.02 0 0 Z " fill="#9AD1CA" transform="translate(325,172)"/>
<path d="M0 0 C4.95 0.99 4.95 0.99 10 2 C8.68 2.99 7.36 3.98 6 5 C4.02 4.01 2.04 3.02 0 2 C0 1.34 0 0.68 0 0 Z " fill="#7DBCAE" transform="translate(159,163)"/>
<path d="M0 0 C0 0.99 0 1.98 0 3 C-3.375 3.125 -3.375 3.125 -7 3 C-7.66 2.34 -8.32 1.68 -9 1 C-5.92677456 0.08941469 -3.19902639 -0.08886184 0 0 Z " fill="#6AB89E" transform="translate(267,144)"/>
<path d="M0 0 C0.33 0.66 0.66 1.32 1 2 C3.01669827 3.13350534 3.01669827 3.13350534 5 4 C4.67 5.98 4.34 7.96 4 10 C3.34 10 2.68 10 2 10 C1.34 6.7 0.68 3.4 0 0 Z " fill="#505E80" transform="translate(272,347)"/>
<path d="M0 0 C0.66 0 1.32 0 2 0 C2.625 2.875 2.625 2.875 3 6 C1 8 1 8 -1.625 8.125 C-2.40875 8.08375 -3.1925 8.0425 -4 8 C-4.33 7.34 -4.66 6.68 -5 6 C-2.525 6.495 -2.525 6.495 0 7 C0.93423645 3.98968256 1.04449911 3.13349732 0 0 Z " fill="#4A5977" transform="translate(237,323)"/>
<path d="M0 0 C0.99 0 1.98 0 3 0 C3.33 2.97 3.66 5.94 4 9 C3.01 8.67 2.02 8.34 1 8 C0.67 5.36 0.34 2.72 0 0 Z " fill="#458792" transform="translate(165,245)"/>
<path d="M0 0 C0.33 0.66 0.66 1.32 1 2 C1.66 2 2.32 2 3 2 C3.33 3.65 3.66 5.3 4 7 C2.68 7 1.36 7 0 7 C0 4.69 0 2.38 0 0 Z " fill="#468E98" transform="translate(162,237)"/>
<path d="M0 0 C2.97 0.33 5.94 0.66 9 1 C7 3 7 3 3.875 3.125 C2.451875 3.063125 2.451875 3.063125 1 3 C0.67 2.01 0.34 1.02 0 0 Z " fill="#24667D" transform="translate(288,226)"/>
<path d="M0 0 C1.98 0.66 3.96 1.32 6 2 C5.34 3.32 4.68 4.64 4 6 C2 4.6875 2 4.6875 0 3 C0 2.01 0 1.02 0 0 Z " fill="#6EB2A1" transform="translate(300,162)"/>
<path d="M0 0 C0.99 0.66 1.98 1.32 3 2 C4.32 2 5.64 2 7 2 C6.67 2.66 6.34 3.32 6 4 C3.36 3.67 0.72 3.34 -2 3 C-2 2.34 -2 1.68 -2 1 C-1.34 0.67 -0.68 0.34 0 0 Z " fill="#62C3AC" transform="translate(163,161)"/>
<path d="M0 0 C0.66 0.33 1.32 0.66 2 1 C1.38125 1.433125 0.7625 1.86625 0.125 2.3125 C-2.2197245 3.99740483 -2.2197245 3.99740483 -4 7 C-4.66 6.34 -5.32 5.68 -6 5 C-6.66 4.67 -7.32 4.34 -8 4 C-6.71349294 3.30289269 -5.42059335 2.61757124 -4.125 1.9375 C-3.40570313 1.55464844 -2.68640625 1.17179688 -1.9453125 0.77734375 C-1.30335938 0.52082031 -0.66140625 0.26429688 0 0 Z " fill="#A4D5CF" transform="translate(216,138)"/>
<path d="M0 0 C0.66 0.33 1.32 0.66 2 1 C2 2.32 2 3.64 2 5 C1.34 5 0.68 5 0 5 C-0.33 5.66 -0.66 6.32 -1 7 C-1.66 6.34 -2.32 5.68 -3 5 C-2.67 4.01 -2.34 3.02 -2 2 C-1.34 2 -0.68 2 0 2 C0 1.34 0 0.68 0 0 Z " fill="#23335D" transform="translate(255,349)"/>
<path d="M0 0 C2.875 -0.1875 2.875 -0.1875 6 0 C6.66 0.99 7.32 1.98 8 3 C5.36 3 2.72 3 0 3 C0 2.01 0 1.02 0 0 Z " fill="#455C78" transform="translate(289,262)"/>
<path d="M0 0 C-0.33 0.66 -0.66 1.32 -1 2 C-1.99 2.33 -2.98 2.66 -4 3 C-5.32 1.68 -6.64 0.36 -8 -1 C-4.37673261 -2.2077558 -3.35853631 -1.54311128 0 0 Z " fill="#4F7D97" transform="translate(245,254)"/>
<path d="M0 0 C0.66 0.66 1.32 1.32 2 2 C1.625 5.125 1.625 5.125 1 8 C0.01 7.67 -0.98 7.34 -2 7 C-1.42415568 4.61435923 -0.77772405 2.33317216 0 0 Z " fill="#448E92" transform="translate(333,246)"/>
<path d="M0 0 C2.31 0 4.62 0 7 0 C7 0.99 7 1.98 7 3 C4.69 2.67 2.38 2.34 0 2 C0 1.34 0 0.68 0 0 Z " fill="#77B8A1" transform="translate(269,146)"/>
<path d="M0 0 C2.31 0 4.62 0 7 0 C5.8125 1.5625 5.8125 1.5625 4 3 C1.3125 2.6875 1.3125 2.6875 -1 2 C-0.67 1.34 -0.34 0.68 0 0 Z " fill="#394767" transform="translate(168,360)"/>
<path d="M0 0 C1.98 0 3.96 0 6 0 C5.67 1.32 5.34 2.64 5 4 C3.35 4 1.7 4 0 4 C0 2.66666667 0 1.33333333 0 0 Z " fill="#3B4865" transform="translate(267,334)"/>
<path d="M0 0 C1.134375 0.020625 2.26875 0.04125 3.4375 0.0625 C1.140279 1.80521938 -1.16116729 3.46161152 -3.5625 5.0625 C-4.125 3.125 -4.125 3.125 -4.5625 1.0625 C-3.5625 0.0625 -3.5625 0.0625 0 0 Z " fill="#99A0AD" transform="translate(246.5625,332.9375)"/>
<path d="M0 0 C1.32 0.99 2.64 1.98 4 3 C1 5 1 5 -1.0625 4.75 C-3 4 -3 4 -5 2 C-3.35 2 -1.7 2 0 2 C0 1.34 0 0.68 0 0 Z " fill="#78AFB6" transform="translate(204,294)"/>
<path d="M0 0 C0.99 0.33 1.98 0.66 3 1 C2.34 2.32 1.68 3.64 1 5 C-0.32 4.67 -1.64 4.34 -3 4 C-2.01 2.68 -1.02 1.36 0 0 Z " fill="#17255B" transform="translate(254,296)"/>
<path d="M0 0 C0.66 0.33 1.32 0.66 2 1 C1.67 1.99 1.34 2.98 1 4 C-0.65 4.33 -2.3 4.66 -4 5 C-4 4.01 -4 3.02 -4 2 C-2.125 0.9375 -2.125 0.9375 0 0 Z " fill="#11284B" transform="translate(276,271)"/>
<path d="M0 0 C0.33 1.32 0.66 2.64 1 4 C-3.75 5.125 -3.75 5.125 -6 4 C-4.02 2.68 -2.04 1.36 0 0 Z " fill="#506984" transform="translate(287,263)"/>
<path d="M0 0 C0.33 0.99 0.66 1.98 1 3 C0.34 3 -0.32 3 -1 3 C-1.66 4.32 -2.32 5.64 -3 7 C-4.125 3.25 -4.125 3.25 -3 1 C-2.01 0.67 -1.02 0.34 0 0 Z " fill="#679EA8" transform="translate(271,204)"/>
<path d="M0 0 C0.99 0.66 1.98 1.32 3 2 C2 4 2 4 -1 6 C-1.66 4.35 -2.32 2.7 -3 1 C-2.01 0.67 -1.02 0.34 0 0 Z " fill="#A2D2C9" transform="translate(317,162)"/>
<path d="M0 0 C1.65 0.33 3.3 0.66 5 1 C5 1.66 5 2.32 5 3 C3.35 3.33 1.7 3.66 0 4 C0 2.68 0 1.36 0 0 Z " fill="#85C1B6" transform="translate(199,147)"/>
<path d="M0 0 C-0.928125 0.680625 -0.928125 0.680625 -1.875 1.375 C-4.05919833 2.97108919 -4.05919833 2.97108919 -6 5 C-7.32 4.01 -8.64 3.02 -10 2 C-8.71211992 1.46987262 -7.41953322 0.9511671 -6.125 0.4375 C-5.40570313 0.14746094 -4.68640625 -0.14257812 -3.9453125 -0.44140625 C-2 -1 -2 -1 0 0 Z " fill="#576881" transform="translate(276,272)"/>
<path d="M0 0 C1.32 0.66 2.64 1.32 4 2 C3.67 2.99 3.34 3.98 3 5 C0.525 4.01 0.525 4.01 -2 3 C-1.34 2.01 -0.68 1.02 0 0 Z " fill="#34476F" transform="translate(222,269)"/>
<path d="M0 0 C1.32 1.32 2.64 2.64 4 4 C2.02 4.99 2.02 4.99 0 6 C0 5.01 0 4.02 0 3 C-0.99 2.67 -1.98 2.34 -3 2 C-2.01 1.34 -1.02 0.68 0 0 Z " fill="#3A5879" transform="translate(210,259)"/>
<path d="M0 0 C0.99 0.33 1.98 0.66 3 1 C3 1.66 3 2.32 3 3 C3.66 3 4.32 3 5 3 C4.67 4.98 4.34 6.96 4 9 C1.3144406 6.3144406 0.93950026 3.62378672 0 0 Z " fill="#5B7F9B" transform="translate(175,249)"/>
<path d="M0 0 C1.98 0.495 1.98 0.495 4 1 C3 4 3 4 0.9375 5.1875 C0.298125 5.455625 -0.34125 5.72375 -1 6 C-0.67 4.02 -0.34 2.04 0 0 Z " fill="#3D748F" transform="translate(264,242)"/>
<path d="M0 0 C1.98 0.99 1.98 0.99 4 2 C4 3.98 4 5.96 4 8 C0 3.375 0 3.375 0 0 Z " fill="#6CA0A8" transform="translate(289,199)"/>
<path d="M0 0 C1.32 0.99 2.64 1.98 4 3 C3.34 4.98 2.68 6.96 2 9 C1.67 9 1.34 9 1 9 C1 7.35 1 5.7 1 4 C0.34 4 -0.32 4 -1 4 C-0.67 2.68 -0.34 1.36 0 0 Z " fill="#7BBFC2" transform="translate(170,179)"/>
<path d="M0 0 C0.94875 0.04125 1.8975 0.0825 2.875 0.125 C1.885 1.61 1.885 1.61 0.875 3.125 C-2.095 2.63 -2.095 2.63 -5.125 2.125 C-3.125 0.125 -3.125 0.125 0 0 Z " fill="#74BAB3" transform="translate(222.125,171.875)"/>
<path d="M0 0 C0.99 0 1.98 0 3 0 C2.3125 1.9375 2.3125 1.9375 1 4 C-1.625 4.75 -1.625 4.75 -4 5 C-3.34 4.67 -2.68 4.34 -2 4 C-0.86649466 1.98330173 -0.86649466 1.98330173 0 0 Z " fill="#A6D5C8" transform="translate(171,162)"/>
<path d="M0 0 C0.99 0 1.98 0 3 0 C2.67 1.65 2.34 3.3 2 5 C1.01 4.67 0.02 4.34 -1 4 C-0.67 2.68 -0.34 1.36 0 0 Z " fill="#83BDB6" transform="translate(185,159)"/>
<path d="M0 0 C0 0.33 0 0.66 0 1 C-3.3 1.33 -6.6 1.66 -10 2 C-10 1.34 -10 0.68 -10 0 C-6.7169902 -1.6415049 -3.57454967 -0.51888624 0 0 Z " fill="#63BDA3" transform="translate(237,147)"/>
</svg>
