<?xml version="1.0" encoding="UTF-8"?>
<svg version="1.1" xmlns="http://www.w3.org/2000/svg" width="500" height="350">
<path d="M0 0 C1.23634186 -0.00860046 2.47268372 -0.01720093 3.74649048 -0.02606201 C5.11398273 -0.0304969 6.48147544 -0.03479529 7.84896851 -0.03897095 C9.29144486 -0.04687613 10.73391926 -0.05514534 12.1763916 -0.06375122 C16.91146976 -0.08992726 21.64655655 -0.10527629 26.38168335 -0.11953735 C28.01468282 -0.1248992 29.64768224 -0.13027671 31.28068161 -0.13566971 C38.07659197 -0.15729359 44.87250001 -0.17602793 51.66843605 -0.1872921 C61.39146356 -0.20351645 71.11409055 -0.23666278 80.83696711 -0.29369295 C87.68215799 -0.3324676 94.5272421 -0.35193377 101.37253988 -0.35721266 C105.45640384 -0.36085637 109.53984019 -0.3727721 113.62358475 -0.4053154 C117.47002108 -0.43552851 121.31577404 -0.44166139 125.16230392 -0.42993164 C126.567508 -0.42971199 127.97274501 -0.43792643 129.37783813 -0.45558548 C138.17233671 -0.560022 144.49612748 0.38771697 151.96762085 5.15390015 C153.32887085 5.98921265 153.32887085 5.98921265 154.71762085 6.84140015 C162.95060697 15.30308032 165.26830565 24.62582074 165.25814819 36.04940796 C165.26486542 37.13637466 165.27158264 38.22334137 165.27850342 39.34324646 C165.29747711 42.9312194 165.30140749 46.51900518 165.30355835 50.10702515 C165.30998725 52.60798214 165.31671568 55.10893838 165.32373047 57.6098938 C165.33570206 62.85195118 165.33949727 68.09396129 165.33822632 73.33602905 C165.33715898 78.70756896 165.3512238 84.07882093 165.37924194 89.45028687 C165.41264563 95.94764684 165.42633545 102.44474845 165.42500687 108.94219208 C165.42736056 111.41242688 165.43617092 113.88266458 165.4516716 116.35285187 C165.47136539 119.81580434 165.46547908 123.27784566 165.45346069 126.74081421 C165.46469971 127.75206863 165.47593872 128.76332306 165.48751831 129.80522156 C165.39258021 140.62286584 161.75890146 148.23846234 154.3465271 156.0171814 C148.35702455 161.39691521 141.95800748 163.26896184 134.0491333 163.30107117 C132.83803391 163.30822647 131.62693451 163.31538177 130.37913513 163.32275391 C129.03997828 163.32559398 127.70082116 163.32830573 126.36166382 163.3309021 C124.94874404 163.33716998 123.5358259 163.34381707 122.12290955 163.35081482 C117.48522075 163.37182331 112.84753175 163.38221588 108.20980835 163.3921814 C106.61024076 163.3962305 105.01067335 163.40034746 103.41110611 163.40453148 C95.89328386 163.42357804 88.37547139 163.43780881 80.85762966 163.44614345 C72.19523667 163.45590681 63.53309982 163.48220486 54.87079704 163.52264434 C48.16573021 163.55286622 41.46073654 163.56761816 34.75560296 163.57092446 C30.75564263 163.5732685 26.7559561 163.58214384 22.75606918 163.60738564 C18.9884913 163.63077738 15.22136531 163.63485552 11.45373344 163.62462425 C9.42554205 163.62389792 7.39737304 163.64291179 5.36927795 163.66268921 C-5.16933245 163.60309874 -13.39624791 161.55684896 -21.2081604 154.2203064 C-26.65426688 148.05116223 -30.13674831 141.67149834 -30.17955017 133.40556335 C-30.18670547 132.45385757 -30.19386078 131.50215179 -30.20123291 130.52160645 C-30.20392181 129.48414276 -30.20661072 128.44667908 -30.2093811 127.3777771 C-30.2159523 126.27974258 -30.2225235 125.18170807 -30.22929382 124.05039978 C-30.24901408 120.41432628 -30.26068689 116.77829408 -30.2706604 113.1421814 C-30.27473593 111.89937094 -30.27881145 110.65656048 -30.28301048 109.3760891 C-30.30171669 103.47556087 -30.31628324 97.57504572 -30.32462245 91.67449504 C-30.33438419 84.88094701 -30.36068013 78.08772573 -30.40112334 71.29429275 C-30.43502019 65.39646539 -30.44677551 59.49871729 -30.45082664 53.60079002 C-30.45569189 51.09901909 -30.46730402 48.59725163 -30.48586464 46.09554482 C-30.51026181 42.58909879 -30.50928938 39.08350111 -30.50234985 35.57699585 C-30.51515991 34.54965332 -30.52796997 33.52231079 -30.54116821 32.46383667 C-30.47091924 22.693015 -26.96976383 14.15007622 -20.03237915 7.15390015 C-13.41014679 2.3339209 -8.17623432 0.04239254 0 0 Z " fill="#F0BF17" transform="translate(183.03237915039063,49.846099853515625)"/>
<path d="M0 0 C3.44057623 3.44057623 6.00991112 6.77984676 8.625 10.8125 C9.40856686 12.00669898 10.19243935 13.20069746 10.9765625 14.39453125 C11.43135986 15.08925537 11.88615723 15.78397949 12.35473633 16.49975586 C17.79319694 24.764376 23.31502863 32.97458687 28.80990601 41.20175171 C41.75019972 60.57804011 54.68313252 79.95580436 67.36230469 99.50439453 C69.50826715 102.77452397 71.71565067 106.00181333 73.93798828 109.22045898 C75 111 75 111 75 113 C50.25 113 25.5 113 0 113 C0 75.71 0 38.42 0 0 Z " fill="#263F7F" transform="translate(250,83)"/>
<path d="M0 0 C7.96284098 -0.09291886 15.92545323 -0.16387495 23.88870335 -0.20724869 C27.58688652 -0.22807214 31.28469719 -0.25629224 34.98266602 -0.30175781 C38.55533924 -0.34540511 42.12765548 -0.36917649 45.70057487 -0.37950897 C47.05968783 -0.38686674 48.41878253 -0.40123472 49.77774239 -0.42292023 C58.43450275 -0.55549306 64.18081388 -0.41938817 70.7421875 5.59765625 C73.76727231 9.50940385 75.1264229 12.24094798 75.12025452 17.15715027 C75.12231651 18.42545937 75.12231651 18.42545937 75.12442017 19.71939087 C75.11902725 21.10582291 75.11902725 21.10582291 75.11352539 22.52026367 C75.11367142 23.49605881 75.11381744 24.47185394 75.1139679 25.47721863 C75.11327038 28.70749116 75.10548545 31.93770627 75.09765625 35.16796875 C75.0957915 37.40570545 75.09436787 39.64344256 75.09336853 41.88117981 C75.08954784 47.77486292 75.07972135 53.66852144 75.06866455 59.56219482 C75.05844081 65.57466296 75.05386884 71.58713506 75.04882812 77.59960938 C75.03809871 89.39975039 75.02102763 101.19987315 75 113 C72.84067098 110.88581251 71.1110378 108.83689776 69.45751953 106.30273438 C68.96965469 105.55922226 68.48178986 104.81571014 67.97914124 104.04966736 C67.45235275 103.23921463 66.92556427 102.4287619 66.3828125 101.59375 C65.82198471 100.7378981 65.26115692 99.8820462 64.68333435 99.0002594 C63.46621159 97.14278206 62.25054591 95.28434933 61.03616333 93.42507935 C57.77407034 88.43237115 54.49922547 83.44806001 51.22265625 78.46484375 C50.54607468 77.43580429 49.8694931 76.40676483 49.17240906 75.34654236 C40.35158987 61.9512255 31.36022711 48.67126573 22.3692627 35.38986206 C20.15895926 32.12325229 17.95151021 28.85472412 15.74542236 25.58526611 C14.5153191 23.76327486 13.28387027 21.94219171 12.05145264 20.12176514 C10.0804417 17.20797443 8.11575334 14.29001031 6.15234375 11.37109375 C5.53694229 10.46367935 4.92154083 9.55626495 4.28749084 8.62135315 C3.44510109 7.36523476 3.44510109 7.36523476 2.58569336 6.08374023 C2.08549179 5.34212143 1.58529022 4.60050262 1.06993103 3.83641052 C0 2 0 2 0 0 Z " fill="#253F7F" transform="translate(258,66)"/>
<path d="M0 0 C1.23634186 -0.00860046 2.47268372 -0.01720093 3.74649048 -0.02606201 C5.11398273 -0.0304969 6.48147544 -0.03479529 7.84896851 -0.03897095 C9.29144486 -0.04687613 10.73391926 -0.05514534 12.1763916 -0.06375122 C16.91146976 -0.08992726 21.64655655 -0.10527629 26.38168335 -0.11953735 C28.01468282 -0.1248992 29.64768224 -0.13027671 31.28068161 -0.13566971 C38.07659197 -0.15729359 44.87250001 -0.17602793 51.66843605 -0.1872921 C61.39146356 -0.20351645 71.11409055 -0.23666278 80.83696711 -0.29369295 C87.68215799 -0.3324676 94.5272421 -0.35193377 101.37253988 -0.35721266 C105.45640384 -0.36085637 109.53984019 -0.3727721 113.62358475 -0.4053154 C117.47002108 -0.43552851 121.31577404 -0.44166139 125.16230392 -0.42993164 C126.567508 -0.42971199 127.97274501 -0.43792643 129.37783813 -0.45558548 C138.17233671 -0.560022 144.49612748 0.38771697 151.96762085 5.15390015 C153.32887085 5.98921265 153.32887085 5.98921265 154.71762085 6.84140015 C162.95060697 15.30308032 165.26830565 24.62582074 165.25814819 36.04940796 C165.26486542 37.13637466 165.27158264 38.22334137 165.27850342 39.34324646 C165.29747711 42.9312194 165.30140749 46.51900518 165.30355835 50.10702515 C165.30998725 52.60798214 165.31671568 55.10893838 165.32373047 57.6098938 C165.33570206 62.85195118 165.33949727 68.09396129 165.33822632 73.33602905 C165.33715898 78.70756896 165.3512238 84.07882093 165.37924194 89.45028687 C165.41264563 95.94764684 165.42633545 102.44474845 165.42500687 108.94219208 C165.42736056 111.41242688 165.43617092 113.88266458 165.4516716 116.35285187 C165.47136539 119.81580434 165.46547908 123.27784566 165.45346069 126.74081421 C165.46469971 127.75206863 165.47593872 128.76332306 165.48751831 129.80522156 C165.39258021 140.62286584 161.75890146 148.23846234 154.3465271 156.0171814 C148.35702455 161.39691521 141.95800748 163.26896184 134.0491333 163.30107117 C132.83803391 163.30822647 131.62693451 163.31538177 130.37913513 163.32275391 C129.03997828 163.32559398 127.70082116 163.32830573 126.36166382 163.3309021 C124.94874404 163.33716998 123.5358259 163.34381707 122.12290955 163.35081482 C117.48522075 163.37182331 112.84753175 163.38221588 108.20980835 163.3921814 C106.61024076 163.3962305 105.01067335 163.40034746 103.41110611 163.40453148 C95.89328386 163.42357804 88.37547139 163.43780881 80.85762966 163.44614345 C72.19523667 163.45590681 63.53309982 163.48220486 54.87079704 163.52264434 C48.16573021 163.55286622 41.46073654 163.56761816 34.75560296 163.57092446 C30.75564263 163.5732685 26.7559561 163.58214384 22.75606918 163.60738564 C18.9884913 163.63077738 15.22136531 163.63485552 11.45373344 163.62462425 C9.42554205 163.62389792 7.39737304 163.64291179 5.36927795 163.66268921 C-5.16933245 163.60309874 -13.39624791 161.55684896 -21.2081604 154.2203064 C-26.65426688 148.05116223 -30.13674831 141.67149834 -30.17955017 133.40556335 C-30.18670547 132.45385757 -30.19386078 131.50215179 -30.20123291 130.52160645 C-30.20392181 129.48414276 -30.20661072 128.44667908 -30.2093811 127.3777771 C-30.2159523 126.27974258 -30.2225235 125.18170807 -30.22929382 124.05039978 C-30.24901408 120.41432628 -30.26068689 116.77829408 -30.2706604 113.1421814 C-30.27473593 111.89937094 -30.27881145 110.65656048 -30.28301048 109.3760891 C-30.30171669 103.47556087 -30.31628324 97.57504572 -30.32462245 91.67449504 C-30.33438419 84.88094701 -30.36068013 78.08772573 -30.40112334 71.29429275 C-30.43502019 65.39646539 -30.44677551 59.49871729 -30.45082664 53.60079002 C-30.45569189 51.09901909 -30.46730402 48.59725163 -30.48586464 46.09554482 C-30.51026181 42.58909879 -30.50928938 39.08350111 -30.50234985 35.57699585 C-30.51515991 34.54965332 -30.52796997 33.52231079 -30.54116821 32.46383667 C-30.47091924 22.693015 -26.96976383 14.15007622 -20.03237915 7.15390015 C-13.41014679 2.3339209 -8.17623432 0.04239254 0 0 Z M-19.46206665 13.8843689 C-24.44951156 21.09259152 -25.6198619 27.67379216 -25.54995728 36.3140564 C-25.55696655 37.3933139 -25.56397583 38.47257141 -25.57119751 39.58453369 C-25.58870809 43.12875601 -25.57717872 46.67217063 -25.56362915 50.21640015 C-25.56632604 52.69304558 -25.5702101 55.16968997 -25.57522583 57.64633179 C-25.58111152 62.82766843 -25.57258747 68.00872855 -25.55386353 73.19003296 C-25.53107509 79.81760166 -25.54420308 86.44452231 -25.56815338 93.07206726 C-25.58263618 98.18344977 -25.57799387 103.29467969 -25.56764221 108.40606689 C-25.56498181 110.84920326 -25.56822039 113.29235367 -25.57756042 115.73547363 C-25.58776644 119.15526813 -25.57216676 122.5740262 -25.54995728 125.9937439 C-25.5580542 126.99452972 -25.56615112 127.99531555 -25.57449341 129.02642822 C-25.46563356 138.11554487 -22.70973447 145.02079902 -16.5362854 151.7203064 C-11.33821406 156.67535103 -5.00506488 158.39424172 2.03723145 158.43478394 C3.23136154 158.44620422 4.42549164 158.45762451 5.6558075 158.46939087 C7.60090462 158.47274445 7.60090462 158.47274445 9.58529663 158.47616577 C10.9755658 158.48543264 12.36582994 158.49548337 13.75608826 158.5062561 C17.52294567 158.53241158 21.28973193 158.54537635 25.0566659 158.55427742 C27.41500319 158.56015531 29.77332139 158.56836806 32.13164902 158.57728577 C39.52452979 158.60461446 46.91736651 158.62395678 54.31029427 158.63168955 C62.81773047 158.64063914 71.32452211 158.67568827 79.83176243 158.73369074 C86.42481085 158.77706698 93.01767889 158.79710572 99.61086833 158.79977179 C103.54057653 158.80185824 107.469678 158.81346299 111.39923477 158.84941101 C115.10136995 158.88262108 118.80245054 158.8865669 122.50468254 158.869133 C124.49195473 158.86688318 126.47919385 158.89413006 128.46626282 158.92263794 C137.84225588 158.8364047 145.82094982 156.68014468 153.00319099 150.36371613 C159.68037906 143.43339493 160.41572131 135.19544933 160.40341187 126.03134155 C160.41852562 124.40045341 160.41852562 124.40045341 160.4339447 122.73661804 C160.46233046 119.1594603 160.46829638 115.58272585 160.4715271 112.00546265 C160.48117383 109.50736317 160.49126673 107.00926539 160.50178528 104.51116943 C160.5197226 99.2810371 160.52530867 94.05105324 160.52352905 88.82089233 C160.52192663 83.4628732 160.54306437 78.1055027 160.58505249 72.74765015 C160.63515464 66.2608793 160.65569312 59.77469051 160.65369987 53.28773117 C160.65722963 50.82305988 160.67044092 48.358382 160.69369698 45.8938179 C160.7232381 42.44028808 160.7144122 38.98881385 160.69638062 35.5352478 C160.71323914 34.52713547 160.73009766 33.51902313 160.74746704 32.48036194 C160.63880106 24.2507511 157.79305598 18.25353019 152.17749882 12.23546791 C144.34654025 4.72968074 135.38525035 4.71399919 125.09115601 4.74984741 C123.69734655 4.74413667 122.30354177 4.73716969 120.90974426 4.72904968 C117.14306972 4.71117926 113.37662892 4.71227521 109.60992479 4.71799207 C106.45656754 4.72109328 103.30325458 4.71498103 100.14990366 4.70895332 C92.70564134 4.69492935 85.26149383 4.69645118 77.81723022 4.70785522 C70.15771605 4.71933031 62.49855227 4.70526634 54.83908427 4.67845875 C48.24431647 4.65624849 41.64965822 4.64967644 35.0548557 4.65553516 C31.1242905 4.65889374 27.19394976 4.65656353 23.26341629 4.63928413 C19.56468466 4.62373206 15.86646889 4.62786089 12.16775703 4.64658928 C10.17780359 4.65198789 8.18782652 4.63782353 6.19792175 4.62289429 C-4.05640577 4.70655255 -12.04545052 6.52365691 -19.46206665 13.8843689 Z " fill="#243E80" transform="translate(183.03237915039063,49.846099853515625)"/>
<path d="M0 0 C1.24106003 0.00007553 2.48212006 0.00015106 3.76078796 0.00022888 C5.11502116 0.00533548 6.46925395 0.01055148 7.82348633 0.01586914 C9.20925343 0.01773456 10.59502119 0.01915788 11.98078918 0.02015686 C15.62549668 0.02397229 19.27016423 0.03379426 22.91485596 0.04486084 C26.63504496 0.05509589 30.35524042 0.05965897 34.07543945 0.06469727 C41.37298369 0.07541741 48.67049503 0.09248214 55.96801758 0.11352539 C54.54369342 3.09169257 53.18898493 5.09284221 50.78051758 7.36352539 C48.27278034 9.79386333 45.9210552 12.26858197 43.65551758 14.92602539 C40.10327883 19.05300839 36.25787601 22.83927795 32.38598633 26.66430664 C29.6615184 29.42398579 27.13254382 32.30533196 24.61254883 35.25024414 C22.42284761 37.73121202 20.06993627 40.02230747 17.71020508 42.34008789 C15.92085931 44.16152954 14.25513226 46.05066818 12.59301758 47.98852539 C10.00167553 50.99820069 7.29546975 53.82441155 4.46801758 56.61352539 C1.06866852 59.9669373 -2.09381033 63.43228196 -5.19604492 67.05883789 C-8.05724202 70.26094357 -11.13479964 73.23728316 -14.21166992 76.23071289 C-16.0958214 77.99105878 -16.0958214 77.99105878 -17.03198242 80.11352539 C-17.69198242 80.11352539 -18.35198242 80.11352539 -19.03198242 80.11352539 C-19.10159658 71.4814754 -19.15485144 62.84952254 -19.18741894 54.21725273 C-19.20305239 50.20861751 -19.22424791 46.20017482 -19.25830078 42.19165039 C-19.29097754 38.3207422 -19.30885289 34.45001882 -19.31661415 30.57898331 C-19.32214279 29.10463681 -19.33293894 27.63030005 -19.34917259 26.15603256 C-19.3710583 24.08549153 -19.37394483 22.01570708 -19.37255859 19.94506836 C-19.37922043 18.76814423 -19.38588226 17.59122009 -19.39274597 16.37863159 C-18.8040561 11.0506683 -16.66950991 7.16730324 -12.53198242 3.80102539 C-11.94416992 3.30989258 -11.35635742 2.81875977 -10.75073242 2.31274414 C-7.26831843 -0.11703108 -4.10635129 -0.00832931 0 0 Z " fill="#27407F" transform="translate(187.031982421875,65.886474609375)"/>
<path d="M0 0 C5.28 0 10.56 0 16 0 C18.92014953 9.28190386 21.55160205 18.5840866 24 28 C24.25692627 27.10075806 24.25692627 27.10075806 24.51904297 26.18334961 C27.01269531 17.45556641 29.50634766 8.7277832 32 0 C37.28 0 42.56 0 48 0 C48 16.17 48 32.34 48 49 C44.7 49 41.4 49 38 49 C37.67 39.76 37.34 30.52 37 21 C34.69 30.24 32.38 39.48 30 49 C26.37 49 22.74 49 19 49 C16.75927591 42.54066928 14.92569556 36.07879424 13.3125 29.4375 C12.549375 26.323125 11.78625 23.20875 11 20 C10.67 29.57 10.34 39.14 10 49 C6.7 49 3.4 49 0 49 C0 32.83 0 16.66 0 0 Z " fill="#253F80" transform="translate(246,221)"/>
<path d="M0 0 C1.37478516 0.01740234 1.37478516 0.01740234 2.77734375 0.03515625 C3.69644531 0.04417969 4.61554688 0.05320313 5.5625 0.0625 C6.27277344 0.07410156 6.98304688 0.08570313 7.71484375 0.09765625 C10.41696282 6.07245476 12.96960302 12.08823433 15.38671875 18.18359375 C15.71399963 19.00719391 16.04128052 19.83079407 16.378479 20.67935181 C17.06179452 22.40154325 17.74405592 24.1241533 18.42529297 25.84716797 C19.47119157 28.4886883 20.52458982 31.12714269 21.578125 33.765625 C22.24395142 35.44643171 22.90933224 37.12741502 23.57421875 38.80859375 C23.88977722 39.59608002 24.20533569 40.38356628 24.53045654 41.19491577 C26.71484375 46.75477748 26.71484375 46.75477748 26.71484375 50.09765625 C23.08484375 50.09765625 19.45484375 50.09765625 15.71484375 50.09765625 C14.39484375 46.79765625 13.07484375 43.49765625 11.71484375 40.09765625 C5.77484375 39.76765625 -0.16515625 39.43765625 -6.28515625 39.09765625 C-6.61515625 41.07765625 -6.94515625 43.05765625 -7.28515625 45.09765625 C-8.27515625 47.57265625 -8.27515625 47.57265625 -9.28515625 50.09765625 C-13.24515625 50.09765625 -17.20515625 50.09765625 -21.28515625 50.09765625 C-17.20049674 38.12249407 -12.88755032 26.24317776 -8.41015625 14.41015625 C-8.16373383 13.75624908 -7.9173114 13.10234192 -7.66342163 12.42861938 C-6.95970348 10.56321987 -6.25143411 8.69953923 -5.54296875 6.8359375 C-5.13191895 5.75352783 -4.72086914 4.67111816 -4.29736328 3.5559082 C-2.88393379 0.12324503 -2.88393379 0.12324503 0 0 Z M2.71484375 15.09765625 C1.87498291 17.03233567 1.04316348 18.97050754 0.21484375 20.91015625 C-0.24921875 21.98910156 -0.71328125 23.06804687 -1.19140625 24.1796875 C-2.46064928 27.04647649 -2.46064928 27.04647649 -2.28515625 30.09765625 C1.34484375 30.09765625 4.97484375 30.09765625 8.71484375 30.09765625 C7.06484375 25.14765625 5.41484375 20.19765625 3.71484375 15.09765625 C3.38484375 15.09765625 3.05484375 15.09765625 2.71484375 15.09765625 Z " fill="#253F80" transform="translate(211.28515625,219.90234375)"/>
<path d="M0 0 C1.51400391 0.01740234 1.51400391 0.01740234 3.05859375 0.03515625 C4.07050781 0.04417969 5.08242188 0.05320313 6.125 0.0625 C7.29869141 0.07990234 7.29869141 0.07990234 8.49609375 0.09765625 C10.90725764 6.10831252 13.30901589 12.12266471 15.7043457 18.13964844 C16.51990368 20.18510349 17.33759205 22.22971047 18.1574707 24.2734375 C19.33719211 27.21522916 20.50915836 30.16000946 21.6796875 33.10546875 C22.04638046 34.01507355 22.41307343 34.92467834 22.7908783 35.86184692 C24.53520905 40.2726339 25.97272867 44.34290158 26.49609375 49.09765625 C22.86609375 49.09765625 19.23609375 49.09765625 15.49609375 49.09765625 C14.17609375 45.79765625 12.85609375 42.49765625 11.49609375 39.09765625 C5.55609375 38.76765625 -0.38390625 38.43765625 -6.50390625 38.09765625 C-6.81328125 39.54140625 -7.12265625 40.98515625 -7.44140625 42.47265625 C-7.95874272 44.88689311 -8.39875859 46.88736092 -9.50390625 49.09765625 C-13.13390625 49.09765625 -16.76390625 49.09765625 -20.50390625 49.09765625 C-19.76180978 45.38717392 -18.9517173 42.28653309 -17.68359375 38.7734375 C-17.31621094 37.7525 -16.94882812 36.7315625 -16.5703125 35.6796875 C-16.17714844 34.60074219 -15.78398437 33.52179688 -15.37890625 32.41015625 C-14.97800781 31.30414063 -14.57710938 30.198125 -14.1640625 29.05859375 C-11.67177928 22.2147049 -9.13186382 15.39063895 -6.50390625 8.59765625 C-6.21370605 7.84524658 -5.92350586 7.09283691 -5.62451172 6.31762695 C-3.1995383 0.12478699 -3.1995383 0.12478699 0 0 Z M2.49609375 13.09765625 C1.65889992 15.38797936 0.82620085 17.67976582 -0.00390625 19.97265625 C-0.24238281 20.62363281 -0.48085938 21.27460938 -0.7265625 21.9453125 C-2.05268158 25.43223214 -2.05268158 25.43223214 -2.50390625 29.09765625 C1.12609375 29.09765625 4.75609375 29.09765625 8.49609375 29.09765625 C6.84609375 23.81765625 5.19609375 18.53765625 3.49609375 13.09765625 C3.16609375 13.09765625 2.83609375 13.09765625 2.49609375 13.09765625 Z " fill="#253F80" transform="translate(321.50390625,220.90234375)"/>
<path d="M0 0 C6.991875 -0.12375 6.991875 -0.12375 14.125 -0.25 C15.58437988 -0.28641602 17.04375977 -0.32283203 18.54736328 -0.36035156 C19.70993652 -0.3703418 20.87250977 -0.38033203 22.0703125 -0.390625 C23.84559326 -0.4220459 23.84559326 -0.4220459 25.65673828 -0.45410156 C30.86715873 0.25360853 33.9137352 2.79939154 37.375 6.625 C39.57599893 11.19630547 39.67792708 15.0117958 39 20 C37.16011829 24.59970427 33.91531175 27.12344443 30 30 C26.21473525 31.41189509 22.23121312 31.1110409 18.25 31.0625 C15.8575 31.041875 13.465 31.02125 11 31 C11 36.94 11 42.88 11 49 C7.37 49 3.74 49 0 49 C0 32.83 0 16.66 0 0 Z M11 9 C11 13.29 11 17.58 11 22 C13.27145346 21.96699341 15.54240126 21.89759995 17.8125 21.8125 C19.07707031 21.77769531 20.34164062 21.74289063 21.64453125 21.70703125 C25.13995466 21.33217722 25.13995466 21.33217722 26.98828125 18.6171875 C28.27174281 16.02656365 28.27174281 16.02656365 27.375 13.3125 C26.06597401 10.73221128 26.06597401 10.73221128 23 9 C18.98500069 8.73125841 15.02862593 8.91336288 11 9 Z " fill="#253F80" transform="translate(153,221)"/>
<path d="M0 0 C1.588125 -0.061875 3.17625 -0.12375 4.8125 -0.1875 C6.15248047 -0.23970703 6.15248047 -0.23970703 7.51953125 -0.29296875 C10 0 10 0 11.84375 1.35546875 C13 3 13 3 12.6875 5.5 C12.460625 6.325 12.23375 7.15 12 8 C11.84188612 11.05270463 11.84188612 11.05270463 13 14 C15.31 9.38 17.62 4.76 20 0 C21.65 0 23.3 0 25 0 C26.0067004 2.26807204 27.00551766 4.53907754 28 6.8125 C28.28617187 7.45509766 28.57234375 8.09769531 28.8671875 8.75976562 C30.13711041 11.67756469 31 13.78265714 31 17 C29.35 17 27.7 17 26 17 C25.67 16.01 25.34 15.02 25 14 C22.03 13.505 22.03 13.505 19 13 C18.67 14.32 18.34 15.64 18 17 C15.03 17 12.06 17 9 17 C8.54625 16.030625 8.0925 15.06125 7.625 14.0625 C6.34213779 10.92920418 6.34213779 10.92920418 4 10 C4 12.31 4 14.62 4 17 C2.68 17 1.36 17 0 17 C0 11.39 0 5.78 0 0 Z M4 4 C4 4.99 4 5.98 4 7 C5.32 6.67 6.64 6.34 8 6 C8 5.34 8 4.68 8 4 C6.68 4 5.36 4 4 4 Z M22 6 C21.34 7.32 20.68 8.64 20 10 C21.32 9.67 22.64 9.34 24 9 C23.34 8.01 22.68 7.02 22 6 Z " fill="#253F80" transform="translate(317,283)"/>
<path d="M0 0 C0.66 0 1.32 0 2 0 C2 33 2 66 2 100 C-0.8290723 97.1709277 -1.37611108 96.61855575 -2 93 C-1.67 93 -1.34 93 -1 93 C-0.67 62.31 -0.34 31.62 0 0 Z " fill="#3A4B7A" transform="translate(331,79)"/>
<path d="M0 0 C1.2065625 0.0309375 1.2065625 0.0309375 2.4375 0.0625 C3.4442004 2.33057204 4.44301766 4.60157754 5.4375 6.875 C5.72367187 7.51759766 6.00984375 8.16019531 6.3046875 8.82226562 C7.57461041 11.74006469 8.4375 13.84515714 8.4375 17.0625 C6 16.6875 6 16.6875 3.4375 16.0625 C3.1075 15.4025 2.7775 14.7425 2.4375 14.0625 C-0.59184491 13.40477572 -0.59184491 13.40477572 -3.5625 13.0625 C-3.8925 14.3825 -4.2225 15.7025 -4.5625 17.0625 C-6.2125 17.0625 -7.8625 17.0625 -9.5625 17.0625 C-8.58662745 14.41540841 -7.60697855 11.76982553 -6.625 9.125 C-6.34720703 8.37025391 -6.06941406 7.61550781 -5.78320312 6.83789062 C-3.26782388 0.07970302 -3.26782388 0.07970302 0 0 Z M-0.5625 6.0625 C-0.8925 7.3825 -1.2225 8.7025 -1.5625 10.0625 C-0.5725 9.7325 0.4175 9.4025 1.4375 9.0625 C0.7775 8.0725 0.1175 7.0825 -0.5625 6.0625 Z " fill="#253F80" transform="translate(280.5625,282.9375)"/>
<path d="M0 0 C0 1.32 0 2.64 0 4 C-2.97 3.505 -2.97 3.505 -6 3 C-6 3.99 -6 4.98 -6 6 C-4.02 6.66 -2.04 7.32 0 8 C1.31343284 13.37313433 1.31343284 13.37313433 0.0625 15.875 C-3.24367151 17.67836628 -6.27418207 17.18323695 -10 17 C-10.33 15.68 -10.66 14.36 -11 13 C-8.69 13 -6.38 13 -4 13 C-5.39195915 10.2160817 -7.15575779 10.02101003 -10 9 C-10.625 5.625 -10.625 5.625 -11 2 C-7.49890112 -1.50109888 -4.63591413 -1.15897853 0 0 Z " fill="#253F80" transform="translate(301,283)"/>
<path d="M0 0 C2.45862401 -0.05383848 4.9160755 -0.09359038 7.375 -0.125 C8.42300781 -0.15013672 8.42300781 -0.15013672 9.4921875 -0.17578125 C11.32897486 -0.19344267 13.16601963 -0.10303261 15 0 C17 2 17 2 17.1953125 4.6015625 C17.17210937 5.59929687 17.14890625 6.59703125 17.125 7.625 C17.10695312 8.62789063 17.08890625 9.63078125 17.0703125 10.6640625 C17.04710937 11.43492187 17.02390625 12.20578125 17 13 C16.34 13 15.68 13 15 13 C14.67 9.37 14.34 5.74 14 2 C10.82990528 3.62078662 10.82990528 3.62078662 10.48828125 6.1640625 C10.43027344 6.97617187 10.37226563 7.78828125 10.3125 8.625 C10.24675781 9.44226563 10.18101562 10.25953125 10.11328125 11.1015625 C10.07589844 11.72804688 10.03851563 12.35453125 10 13 C9.01 13 8.02 13 7 13 C6.67 9.7 6.34 6.4 6 3 C5.34 3 4.68 3 4 3 C3.67 6.3 3.34 9.6 3 13 C2.01 13 1.02 13 0 13 C0 8.71 0 4.42 0 0 Z " fill="#253F80" transform="translate(185,287)"/>
<path d="M0 0 C2.45862401 -0.05383848 4.9160755 -0.09359038 7.375 -0.125 C8.42300781 -0.15013672 8.42300781 -0.15013672 9.4921875 -0.17578125 C11.32897486 -0.19344267 13.16601963 -0.10303261 15 0 C17 2 17 2 17.1953125 4.6015625 C17.17210937 5.59929687 17.14890625 6.59703125 17.125 7.625 C17.10695312 8.62789063 17.08890625 9.63078125 17.0703125 10.6640625 C17.04710937 11.43492187 17.02390625 12.20578125 17 13 C16.34 13 15.68 13 15 13 C14.67 9.37 14.34 5.74 14 2 C10.82990528 3.62078662 10.82990528 3.62078662 10.48828125 6.1640625 C10.43027344 6.97617187 10.37226563 7.78828125 10.3125 8.625 C10.24675781 9.44226563 10.18101562 10.25953125 10.11328125 11.1015625 C10.07589844 11.72804688 10.03851563 12.35453125 10 13 C9.01 13 8.02 13 7 13 C6.67 9.7 6.34 6.4 6 3 C5.34 3 4.68 3 4 3 C3.34 6.3 2.68 9.6 2 13 C1.34 13 0.68 13 0 13 C0 8.71 0 4.42 0 0 Z " fill="#253F80" transform="translate(153,287)"/>
<path d="M0 0 C4.62 0 9.24 0 14 0 C13.67 1.32 13.34 2.64 13 4 C11.68 4 10.36 4 9 4 C9 8.29 9 12.58 9 17 C7.68 17 6.36 17 5 17 C4.67 12.71 4.34 8.42 4 4 C2.68 3.67 1.36 3.34 0 3 C0 2.01 0 1.02 0 0 Z " fill="#253F80" transform="translate(302,283)"/>
<path d="M0 0 C0.66 0 1.32 0 2 0 C2.33 1.65 2.66 3.3 3 5 C4.423125 4.9071875 4.423125 4.9071875 5.875 4.8125 C6.90625 4.874375 7.9375 4.93625 9 5 C11.46324069 8.69486103 11.38991688 10.63293092 11 15 C10 16.9375 10 16.9375 8 18 C5.36 18 2.72 18 0 18 C0 12.06 0 6.12 0 0 Z M4 7 C1.66608797 9.78114056 1.66608797 9.78114056 2.375 12.6875 C2.58125 13.450625 2.7875 14.21375 3 15 C4.94603274 15.59070014 4.94603274 15.59070014 7 16 C8.41577477 14.81575674 8.41577477 14.81575674 8.0625 11.4375 C8.041875 10.303125 8.02125 9.16875 8 8 C6.68 7.67 5.36 7.34 4 7 Z " fill="#253F80" transform="translate(205,282)"/>
<path d="M0 0 C3.0625 0.4375 3.0625 0.4375 5 2.75 C6.0625 5.4375 6.0625 5.4375 5.0625 8.4375 C2.7525 8.4375 0.4425 8.4375 -1.9375 8.4375 C-1.6075 9.0975 -1.2775 9.7575 -0.9375 10.4375 C1.0425 10.4375 3.0225 10.4375 5.0625 10.4375 C4.7325 11.4275 4.4025 12.4175 4.0625 13.4375 C0.75 13.75 0.75 13.75 -2.9375 13.4375 C-4.9375 11.3125 -4.9375 11.3125 -5.9375 8.4375 C-5.65204028 3.58468473 -5.22342906 0.77795752 0 0 Z M-0.9375 2.4375 C-1.9275 3.9225 -1.9275 3.9225 -2.9375 5.4375 C-0.9575 5.4375 1.0225 5.4375 3.0625 5.4375 C2.4025 4.4475 1.7425 3.4575 1.0625 2.4375 C0.4025 2.4375 -0.2575 2.4375 -0.9375 2.4375 Z " fill="#253F80" transform="translate(222.9375,286.5625)"/>
<path d="M0 0 C0.38133299 1.9914056 0.71325582 3.99279077 1 6 C0 7 0 7 -3.0625 7.0625 C-4.031875 7.041875 -5.00125 7.02125 -6 7 C-5.67 7.66 -5.34 8.32 -5 9 C-3.35 9 -1.7 9 0 9 C0 9.99 0 10.98 0 12 C-6.34507042 12.35915493 -6.34507042 12.35915493 -8.9375 10.9375 C-10.6140629 7.88023824 -10.36528977 5.4093712 -10 2 C-7.69981438 -2.32976117 -4.22839932 -0.87759231 0 0 Z M-7 2 C-7 2.66 -7 3.32 -7 4 C-5.35 4 -3.7 4 -2 4 C-2.33 3.01 -2.66 2.02 -3 1 C-5.0745356 0.8509288 -5.0745356 0.8509288 -7 2 Z " fill="#253F80" transform="translate(182,288)"/>
<path d="M0 0 C3.0625 0.25 3.0625 0.25 6.0625 2.25 C6.95812115 5.41912098 7.35165213 7.42702854 6.25 10.5625 C5.0625 12.25 5.0625 12.25 3.0625 13.25 C-2.23825188 13.81390977 -2.23825188 13.81390977 -4.875 11.6875 C-6.38390049 8.22590475 -5.8076627 5.86452199 -4.9375 2.25 C-2.9375 0.25 -2.9375 0.25 0 0 Z M-0.9375 2.25 C-3.1866908 4.07703227 -3.1866908 4.07703227 -3.1875 6.75 C-3.1866908 9.42296773 -3.1866908 9.42296773 -0.9375 11.25 C1.17070797 10.9314823 1.17070797 10.9314823 3.0625 10.25 C3.7503236 7.89632287 3.7503236 7.89632287 4.0625 5.25 C3.4025 4.26 2.7425 3.27 2.0625 2.25 C1.0725 2.25 0.0825 2.25 -0.9375 2.25 Z " fill="#253F80" transform="translate(249.9375,286.75)"/>
<path d="M0 0 C0 0.99 0 1.98 0 3 C-0.99 3 -1.98 3 -3 3 C-3 3.99 -3 4.98 -3 6 C-2.01 6 -1.02 6 0 6 C-0.33 6.99 -0.66 7.98 -1 9 C-1.33 9 -1.66 9 -2 9 C-2.33 12.3 -2.66 15.6 -3 19 C-3.99 19 -4.98 19 -6 19 C-6.09087891 17.96939453 -6.09087891 17.96939453 -6.18359375 16.91796875 C-6.26738281 16.01691406 -6.35117187 15.11585938 -6.4375 14.1875 C-6.51871094 13.29417969 -6.59992188 12.40085937 -6.68359375 11.48046875 C-6.93489767 8.87256441 -6.93489767 8.87256441 -8 6 C-7.34 6 -6.68 6 -6 6 C-5.87625 5.195625 -5.7525 4.39125 -5.625 3.5625 C-5.41875 2.716875 -5.2125 1.87125 -5 1 C-3 0 -3 0 0 0 Z " fill="#253F80" transform="translate(265,281)"/>
<path d="M0 0 C2.31 0 4.62 0 7 0 C7 0.99 7 1.98 7 3 C6.01 3.33 5.02 3.66 4 4 C3.67 6.97 3.34 9.94 3 13 C2.01 13 1.02 13 0 13 C0 8.71 0 4.42 0 0 Z " fill="#253F80" transform="translate(230,287)"/>
</svg>
